<svg width="20" height="20" viewBox="0 0 20 20" fill="none" xmlns="http://www.w3.org/2000/svg">
<path d="M19.8827 6.13262C19.772 5.9852 19.5984 5.89844 19.4141 5.89844H15.8173C15.5322 3.91344 13.8205 2.38281 11.7578 2.38281C9.69516 2.38281 7.98348 3.91344 7.69828 5.89844H4.64926L3.88367 0.503633C3.8427 0.214727 3.59539 0 3.30355 0H0.585938C0.262344 0 0 0.262344 0 0.585938C0 0.909531 0.262344 1.17188 0.585938 1.17188H2.79492C2.7959 1.17871 4.43992 12.7967 4.44023 12.7987C4.54207 13.4707 4.87051 14.0865 5.36715 14.5423C4.97617 14.865 4.72656 15.3531 4.72656 15.8984C4.72656 16.7079 5.27676 17.391 6.0227 17.5943C5.94285 17.795 5.89844 18.0134 5.89844 18.2422C5.89844 19.2114 6.68699 20 7.65625 20C8.62551 20 9.41406 19.2114 9.41406 18.2422C9.41406 18.0368 9.37832 17.8396 9.31328 17.6559H14.2023C14.1373 17.8396 14.1016 18.0368 14.1016 18.2422C14.1016 19.2114 14.8901 20 15.8594 20C16.8286 20 17.6172 19.2114 17.6172 18.2422C17.6172 17.2729 16.8286 16.4844 15.8594 16.4844H6.48438C6.16129 16.4844 5.89844 16.2215 5.89844 15.8984C5.89844 15.5754 6.16129 15.3125 6.48438 15.3125H15.2617C16.5681 15.3125 17.7246 14.4391 18.0752 13.1879L19.9767 6.64797C20.0282 6.47094 19.9933 6.28004 19.8827 6.13262ZM15.8594 17.6562C16.1825 17.6562 16.4453 17.9191 16.4453 18.2422C16.4453 18.5653 16.1825 18.8281 15.8594 18.8281C15.5363 18.8281 15.2734 18.5653 15.2734 18.2422C15.2734 17.9191 15.5363 17.6562 15.8594 17.6562ZM7.65625 17.6562C7.97934 17.6562 8.24219 17.9191 8.24219 18.2422C8.24219 18.5653 7.97934 18.8281 7.65625 18.8281C7.33316 18.8281 7.07031 18.5653 7.07031 18.2422C7.07031 17.9191 7.33316 17.6562 7.65625 17.6562ZM11.7578 3.55469C13.3732 3.55469 14.6875 4.86895 14.6875 6.48438C14.6875 8.0998 13.3732 9.41406 11.7578 9.41406C10.1424 9.41406 8.82812 8.0998 8.82812 6.48438C8.82812 4.86895 10.1424 3.55469 11.7578 3.55469ZM16.9473 12.8698C16.7385 13.6181 16.0454 14.1406 15.2617 14.1406C14.9281 14.1406 7.82707 14.1406 7.33981 14.1406C6.4652 14.1406 5.73359 13.5036 5.59922 12.6257L4.81508 7.07031H7.69828C7.98348 9.05531 9.69516 10.5859 11.7578 10.5859C13.8205 10.5859 15.5322 9.05531 15.8173 7.07031H18.6335C18.6335 7.07031 16.9479 12.8678 16.9473 12.8698Z" fill="white"/>
<path d="M11.333 7.53333H12.133V8.33333H11.333V7.53333Z" fill="white"/>
<path d="M11.333 4.33337H12.133V6.73337H11.333V4.33337Z" fill="white"/>
</svg>
