<svg width="42" height="42" viewBox="0 0 42 42" fill="none" xmlns="http://www.w3.org/2000/svg">
<path d="M38.2266 6.5625H3.77344C1.6928 6.5625 0 8.2553 0 10.3359V31.6641C0 33.7447 1.6928 35.4375 3.77344 35.4375H38.2266C40.3072 35.4375 42 33.7447 42 31.6641V10.3359C42 8.2553 40.3072 6.5625 38.2266 6.5625ZM13.125 18.0469C13.125 19.6753 11.8003 21 10.1719 21H8.20312C6.57472 21 5.25 19.6753 5.25 18.0469V16.0781C5.25 14.4497 6.57472 13.125 8.20312 13.125H10.1719C11.8003 13.125 13.125 14.4497 13.125 16.0781V18.0469ZM29.9987 24.7496C29.7143 24.7496 29.4278 24.6576 29.187 24.4679C28.6178 24.0191 28.5201 23.1938 28.9688 22.6245C29.3368 22.158 29.5312 21.5961 29.5312 21C29.5312 20.4039 29.3368 19.842 28.9689 19.3754C28.5201 18.8062 28.6179 17.9808 29.1871 17.532C29.7563 17.0834 30.5817 17.181 31.0305 17.7503C31.7564 18.6713 32.1562 19.8254 32.1562 21C32.1562 22.1746 31.7564 23.3287 31.0304 24.2497C30.7714 24.5782 30.387 24.7496 29.9987 24.7496V24.7496ZM34.2348 27.572C33.9756 27.8608 33.6173 28.0079 33.2575 28.0079C32.9452 28.0079 32.632 27.8972 32.3813 27.6723C31.8418 27.1882 31.7969 26.3583 32.281 25.8188C33.4701 24.4937 34.125 22.7824 34.125 21C34.125 19.2176 33.4701 17.5063 32.281 16.1812C31.7969 15.6416 31.8418 14.8118 32.3813 14.3277C32.9208 13.8437 33.7505 13.8885 34.2348 14.428C35.8567 16.2355 36.75 18.5695 36.75 21C36.75 23.4305 35.8567 25.7645 34.2348 27.572V27.572Z" fill="#26B9D7"/>
</svg>
