<svg width="24" height="21" viewBox="0 0 24 21" fill="none" xmlns="http://www.w3.org/2000/svg">
<path d="M12.8571 12C12.8571 8.69143 15.5486 6 18.8571 6C21.0411 6 22.9504 7.17643 24 8.92543V1.71429C24 0.767571 23.2324 0 22.2857 0H1.71429C0.767571 0 0 0.767571 0 1.71429V15.4286C0 16.3753 0.767571 17.1429 1.71429 17.1429H15.7787C14.0306 16.0937 12.8571 14.1827 12.8571 12Z" fill="#797979"/>
<path d="M1.71429 15.4286V1.71429C1.71429 0.767571 2.48186 0 3.42857 0H1.71429C0.767571 0 0 0.767571 0 1.71429V15.4286C0 16.3753 0.767571 17.1429 1.71429 17.1429H3.42857C2.48186 17.1429 1.71429 16.3753 1.71429 15.4286Z" fill="#474848"/>
<path d="M0 2.57153H24V5.14296H0V2.57153Z" fill="#505050"/>
<path d="M0 2.57153H1.71429V5.14296H0V2.57153Z" fill="#505050"/>
<path d="M18.858 16.2858C16.491 16.2858 14.5723 14.3671 14.5723 12.0001C14.5723 9.63307 16.491 7.71436 18.858 7.71436C21.225 7.71436 23.1437 9.63307 23.1437 12.0001C23.1437 14.3671 21.225 16.2858 18.858 16.2858Z" fill="#F0F0F0"/>
<path d="M18.8571 20.5714C18.3836 20.5714 18 20.1878 18 19.7142V16.2856H19.7143V19.7142C19.7143 20.1878 19.3307 20.5714 18.8571 20.5714Z" fill="#505050"/>
<path d="M18.8571 19.7142V16.2856H18V19.7142C18 20.1878 18.3836 20.5714 18.8571 20.5714C19.014 20.5714 19.1593 20.5259 19.2857 20.4526C19.0307 20.3039 18.8571 20.0305 18.8571 19.7142Z" fill="#3C3C3C"/>
<path d="M12.8563 11.9999C12.8563 11.4042 12.9463 10.8295 13.1092 10.2856H3.42773V13.7142H13.1113C12.9485 13.1704 12.8563 12.5961 12.8563 11.9999Z" fill="#F0F0F0"/>
<path d="M18.8577 6.85718C16.0176 6.85718 13.7148 9.15989 13.7148 12C13.7148 14.8402 16.0176 17.1429 18.8577 17.1429C21.6978 17.1429 24.0006 14.8402 24.0006 12C24.0006 9.15989 21.6978 6.85718 18.8577 6.85718ZM18.8577 16.2857C16.4946 16.2857 14.572 14.3632 14.572 12C14.572 9.63689 16.4946 7.71432 18.8577 7.71432C21.2208 7.71432 23.1434 9.63689 23.1434 12C23.1434 14.3632 21.2208 16.2857 18.8577 16.2857Z" fill="#505050"/>
<path d="M14.572 12C14.572 9.30432 16.6471 7.09289 19.2863 6.87475C19.1444 6.86318 19.0026 6.85718 18.8577 6.85718C16.0176 6.85718 13.7148 9.15989 13.7148 12C13.7148 14.8402 16.0176 17.1429 18.8577 17.1429C19.0026 17.1429 19.1444 17.1369 19.2863 17.1253C16.6471 16.9072 14.572 14.6957 14.572 12Z" fill="#3C3C3C"/>
<path d="M18 18H19.7143V18.8571H18V18Z" fill="#505050"/>
<path d="M18 18H18.8571V18.8571H18V18Z" fill="#3C3C3C"/>
<path d="M15.2734 12.7056L16.9878 10.9913L17.2908 11.2943L15.5765 13.0086L15.2734 12.7056Z" fill="#FA6450"/>
<path d="M15.2734 11.2947L15.5765 10.9916L17.2908 12.7059L16.9878 13.009L15.2734 11.2947Z" fill="#FA6450"/>
<path d="M17.8457 12.7058L19.56 10.9915L19.8631 11.2945L18.1488 13.0089L17.8457 12.7058Z" fill="#FA6450"/>
<path d="M17.8457 11.2952L18.1488 10.9921L19.8631 12.7064L19.56 13.0095L17.8457 11.2952Z" fill="#FA6450"/>
<path d="M20.416 12.7063L22.1304 10.992L22.4334 11.295L20.7191 13.0093L20.416 12.7063Z" fill="#FA6450"/>
<path d="M20.416 11.2957L20.7191 10.9926L22.4334 12.7069L22.1304 13.01L20.416 11.2957Z" fill="#FA6450"/>
<path d="M3.42773 7.71436H5.99916V8.5715H3.42773V7.71436Z" fill="#0E0F0F"/>
<path d="M6.85742 7.71436H9.42885V8.5715H6.85742V7.71436Z" fill="#0E0F0F"/>
<path d="M10.2852 7.71436H12.8566V8.5715H10.2852V7.71436Z" fill="#0E0F0F"/>
</svg>
