<svg width="57" height="30" viewBox="0 0 57 30" fill="none" xmlns="http://www.w3.org/2000/svg">
<path d="M41.3269 0.53064H15.6722C7.65514 0.53064 1.0957 7.04596 1.0957 15.0091C1.0957 22.9723 7.65514 29.4876 15.6722 29.4876H41.3269C49.344 29.4876 55.9034 22.9723 55.9034 15.0091C55.9034 7.04596 49.344 0.53064 41.3269 0.53064Z" fill="white"/>
<path d="M41.3269 1.7034C43.1271 1.7034 44.8763 2.05812 46.5234 2.75309C48.1195 3.42634 49.548 4.38916 50.787 5.61259C52.0188 6.83602 52.9881 8.26216 53.6659 9.84755C54.3656 11.4836 54.7227 13.221 54.7227 15.0091C54.7227 16.7972 54.3656 18.5346 53.6659 20.1707C52.9881 21.7561 52.0188 23.175 50.787 24.4057C49.5553 25.6291 48.1195 26.5919 46.5234 27.2652C44.8763 27.9601 43.1271 28.3149 41.3269 28.3149H15.6722C13.872 28.3149 12.1228 27.9601 10.4757 27.2652C8.87956 26.5919 7.45106 25.6291 6.21206 24.4057C4.98034 23.1822 4.01101 21.7561 3.3332 20.1707C2.63353 18.5346 2.2764 16.7972 2.2764 15.0091C2.2764 13.221 2.63353 11.4836 3.3332 9.84755C4.01101 8.26216 4.98034 6.84326 6.21206 5.61259C7.44377 4.38916 8.87956 3.42634 10.4757 2.75309C12.1228 2.05812 13.872 1.7034 15.6722 1.7034H41.3269ZM41.3269 0.53064H15.6722C7.65514 0.53064 1.0957 7.04596 1.0957 15.0091C1.0957 22.9723 7.65514 29.4876 15.6722 29.4876H41.3269C49.344 29.4876 55.9034 22.9723 55.9034 15.0091C55.9034 7.04596 49.344 0.53064 41.3269 0.53064Z" fill="#3C4043"/>
<path d="M27.2909 16.0371V20.4169H25.8916V9.60144H29.6013C30.5415 9.60144 31.3432 9.91273 31.9992 10.5353C32.6697 11.1579 33.0049 11.918 33.0049 12.8157C33.0049 13.7351 32.6697 14.4952 31.9992 15.1105C31.3505 15.7258 30.5488 16.0299 29.6013 16.0299H27.2909V16.0371ZM27.2909 10.9335V14.7051H29.6305C30.1844 14.7051 30.6508 14.5169 31.0152 14.1477C31.3869 13.7785 31.5764 13.3297 31.5764 12.8229C31.5764 12.3234 31.3869 11.8818 31.0152 11.5126C30.6508 11.1289 30.1917 10.9407 29.6305 10.9407H27.2909V10.9335Z" fill="#3C4043"/>
<path d="M36.6637 12.7722C37.6986 12.7722 38.5149 13.0473 39.1125 13.5975C39.7101 14.1477 40.009 14.9006 40.009 15.8561V20.4169H38.6752V19.3889H38.6169C38.0411 20.2359 37.2686 20.6558 36.3065 20.6558C35.483 20.6558 34.7979 20.4169 34.244 19.9318C33.69 19.4468 33.4131 18.8459 33.4131 18.122C33.4131 17.3547 33.7046 16.7466 34.2877 16.2977C34.8707 15.8417 35.6506 15.6172 36.6199 15.6172C37.4508 15.6172 38.1359 15.7693 38.6679 16.0733V15.7548C38.6679 15.2698 38.4784 14.8644 38.0922 14.5241C37.7059 14.1839 37.254 14.0174 36.7365 14.0174C35.9567 14.0174 35.3372 14.3431 34.8853 15.0019L33.6536 14.2345C34.3314 13.2572 35.3372 12.7722 36.6637 12.7722ZM34.8562 18.1437C34.8562 18.5057 35.0092 18.8098 35.3226 19.0486C35.6287 19.2875 35.9931 19.4106 36.4086 19.4106C36.9989 19.4106 37.5237 19.1934 37.9828 18.7591C38.442 18.3247 38.6752 17.818 38.6752 17.2316C38.2379 16.8914 37.633 16.7176 36.8531 16.7176C36.2847 16.7176 35.8109 16.8552 35.4319 17.123C35.0457 17.4053 34.8562 17.7456 34.8562 18.1437Z" fill="#3C4043"/>
<path d="M47.6175 13.0111L42.9531 23.6673H41.51L43.2446 19.9391L40.1689 13.0111H41.6922L43.9078 18.3247H43.937L46.0943 13.0111H47.6175Z" fill="#3C4043"/>
<path d="M21.7244 15.1539C21.7244 14.7007 21.6836 14.2671 21.6078 13.8501H15.7422V16.239L19.1203 16.2398C18.9833 17.0346 18.5423 17.7122 17.8667 18.164V19.7139H19.8775C21.0517 18.6345 21.7244 17.039 21.7244 15.1539Z" fill="#4285F4"/>
<path d="M17.8678 18.1641C17.308 18.5391 16.5872 18.7584 15.744 18.7584C14.115 18.7584 12.7332 17.6682 12.2383 16.1986H10.1641V17.797C11.1917 19.8226 13.3038 21.2125 15.744 21.2125C17.4305 21.2125 18.8473 20.6616 19.8786 19.7133L17.8678 18.1641Z" fill="#34A853"/>
<path d="M12.0429 15.0128C12.0429 14.6002 12.1121 14.2013 12.2382 13.8263V12.2279H10.164C9.73905 13.0655 9.5 14.0109 9.5 15.0128C9.5 16.0148 9.73978 16.9602 10.164 17.7978L12.2382 16.1994C12.1121 15.8244 12.0429 15.4255 12.0429 15.0128Z" fill="#FABB05"/>
<path d="M15.744 11.2665C16.6645 11.2665 17.4888 11.5814 18.1396 12.1967L19.9216 10.4282C18.8393 9.42699 17.4283 8.81238 15.744 8.81238C13.3046 8.81238 11.1917 10.2023 10.1641 12.2279L12.2383 13.8263C12.7332 12.3567 14.115 11.2665 15.744 11.2665Z" fill="#E94235"/>
</svg>
