<?xml version="1.0" encoding="UTF-8"?>
<svg id="Calque_1" xmlns="http://www.w3.org/2000/svg" viewBox="0 0 57 57">
    <defs>
        <style>.cls-1{fill:#9edae9;}.cls-2{fill:#1d1d1b;}</style>
    </defs>
    <path class="cls-1"
          d="m6.73.71h21.31c15.3,0,22.23,10.62,22.23,19.81s-6.94,19.81-22.23,19.81h-6.69v15.97H6.73V.71Z"/>
    <path class="cls-2"
          d="m36.55,29.3h-15.02c-2.18,0-3.96-1.77-3.96-3.96v-9.65c0-2.18,1.78-3.96,3.96-3.96h15.02c2.18,0,3.96,1.77,3.96,3.96v9.65c0,2.18-1.78,3.96-3.96,3.96Zm-15.02-15.77c-1.2,0-2.17.97-2.17,2.17v9.65c0,1.19.97,2.17,2.17,2.17h15.02c1.2,0,2.17-.97,2.17-2.17v-9.65c0-1.19-.97-2.17-2.17-2.17h-15.02Zm10.73,9.95c0-.49-.4-.89-.9-.89h-8.33c-.49,0-.9.4-.9.89s.4.89.9.89h8.33c.49,0,.9-.4.9-.89Zm-6.88-5.2c0-1.14-.52-1.16-1.16-1.16h-1.1c-.64,0-1.16.03-1.16,1.16s.52,1.16,1.16,1.16h1.1c.64,0,1.16-.03,1.16-1.16Z"/>
</svg>
