<svg width="16" height="17" viewBox="0 0 16 17" fill="none" xmlns="http://www.w3.org/2000/svg">
<path fill-rule="evenodd" clip-rule="evenodd" d="M6.00033 15.0312H10.0003V11.7374C11.1937 11.0252 12.0003 9.70356 12.0003 8.18331C12.0003 5.91665 10.207 4.07455 8.00033 4.07455C5.79366 4.07455 4.00033 5.91665 4.00033 8.18331C4.00033 9.70356 4.80699 11.0252 6.00033 11.7374V15.0312ZM8.66732 13.6616V10.9499L9.33398 10.5527C10.1607 10.0596 10.6673 9.1557 10.6673 8.1833C10.6673 6.6699 9.47398 5.44412 8.00065 5.44412C6.52732 5.44412 5.33398 6.6699 5.33398 8.1833C5.33398 9.1557 5.84732 10.0596 6.66732 10.5527L7.33398 10.9499V13.6616H8.66732ZM2.66699 8.90236H0.666992V7.53277H2.66699V8.90236ZM2.36719 3.36234L3.30719 2.39678L4.50052 3.62941L3.56052 4.59497L2.36719 3.36234ZM8.66732 2.7392V0.684818H7.33398V2.7392H8.66732ZM13.334 8.90236H15.334V7.53277H13.334V8.90236ZM12.6875 2.38997L11.4941 3.62259L12.4275 4.58131L13.6275 3.35553L12.6875 2.38997Z" fill="#22106A"/>
</svg>
