<?xml version="1.0" encoding="UTF-8"?>
<svg id="Calque_1" xmlns="http://www.w3.org/2000/svg" viewBox="0 0 100 29">
    <defs>
        <style>.cls-1{fill:#a4dbe8;}</style>
    </defs>
    <path class="cls-1"
          d="m47.66,24.3h-1.37c-.09,0-.17.07-.19.16l-.55,3.5c0,.07.04.13.11.13h.65c.09,0,.17-.07.19-.16l.15-.94c.01-.09.09-.16.19-.16h.43c.9,0,1.42-.43,1.55-1.3.06-.38,0-.67-.18-.88-.2-.23-.54-.35-.99-.35h0Zm.16,1.28c-.08.49-.45.49-.81.49h-.21l.15-.91c0-.06.06-.1.11-.1h.1c.25,0,.48,0,.6.14.07.08.09.21.07.38h0Zm3.92-.02h-.65c-.06,0-.1.04-.11.1l-.03.18-.05-.07c-.14-.21-.46-.28-.77-.28-.72,0-1.34.55-1.46,1.32-.06.38.03.75.25,1,.2.24.48.33.83.33.58,0,.9-.37.9-.37l-.03.18c0,.07.04.13.11.13h.59c.09,0,.17-.07.19-.16l.35-2.24c0-.07-.04-.13-.11-.13h0Zm-.91,1.28c-.06.37-.36.62-.74.62-.19,0-.34-.06-.44-.18-.1-.12-.13-.28-.1-.46.06-.37.36-.63.73-.63.19,0,.34.06.44.18s.14.28.11.46h0Zm4.49-1.09l-2.19,3.16s-.09.08-.16.08h-.66c-.09,0-.15-.1-.09-.18l.68-.96-.72-2.12c-.03-.07.03-.15.11-.15h.65c.08,0,.16.06.18.14l.38,1.28.91-1.34c.04-.05.1-.08.16-.08h.66c.09,0,.15.1.09.18h0Zm2.08-1.44h-1.37c-.09,0-.17.07-.19.16l-.55,3.5c0,.07.04.13.11.13h.7c.07,0,.12-.05.13-.11l.16-.99c.01-.09.09-.16.19-.16h.43c.9,0,1.42-.43,1.55-1.3.06-.38,0-.67-.18-.88-.2-.23-.54-.35-.99-.35Zm.16,1.28c-.07.49-.45.49-.81.49h-.21l.15-.91c0-.06.06-.1.11-.1h.1c.25,0,.48,0,.6.14.07.08.09.21.07.38h0Zm3.92-.02h-.65c-.06,0-.1.04-.11.1l-.03.18-.05-.07c-.14-.21-.46-.28-.77-.28-.72,0-1.34.55-1.46,1.32-.06.38.03.75.24,1,.2.24.48.33.83.33.58,0,.9-.37.9-.37l-.03.18c0,.07.04.13.11.13h.59c.09,0,.17-.07.19-.16l.35-2.24c0-.07-.04-.13-.11-.13h0Zm-.91,1.28c-.06.37-.36.62-.74.62-.19,0-.34-.06-.44-.18-.1-.12-.13-.28-.1-.46.06-.37.36-.63.73-.63.19,0,.34.06.44.18s.14.28.11.46h0Zm1.8-2.54h.63c.07,0,.12.06.11.13l-.55,3.5c-.01.09-.09.16-.19.16h-.56c-.07,0-.12-.06-.11-.13l.56-3.57c0-.06.06-.1.11-.1h0Zm-39.75.37h1.51c.56,0,.91.35.91.88s-.31.7-.59.73v.03c.28,0,.72.23.72.8s-.38.98-.88.98h-1.66v-3.42h0Zm.55,1.44h.86c.27,0,.43-.15.43-.41v-.16c0-.26-.16-.41-.43-.41h-.86v.97Zm0,1.5h.95c.29,0,.46-.16.46-.44v-.17c0-.28-.18-.44-.46-.44h-.95v1.04h0Zm4.22.06h-.02c-.09.25-.29.48-.72.48-.52,0-.83-.36-.83-.98v-1.62h.53v1.55c0,.39.16.59.49.59.28,0,.54-.14.54-.44v-1.7h.53v2.55h-.53v-.42Zm1.25-2.86v-.08c0-.16.1-.28.32-.28s.31.12.31.28v.08c0,.16-.09.28-.31.28s-.32-.12-.32-.28Zm.05.74h.53v2.55h-.53v-2.55Zm1.83,2.55c-.36,0-.54-.2-.54-.53v-3.1h.53v3.19h.35v.44s-.34,0-.34,0Zm1.51,0c-.37,0-.56-.21-.56-.55v-1.56h-.4v-.44h.22c.18,0,.24-.07.24-.25v-.44h.48v.7h.53v.44h-.53v1.67h.49v.44h-.46Zm2.28-2.55h.52l.26,1.07.23.96h.01l.27-.96.31-1.07h.48l.31,1.07.27.96h.01l.23-.96.27-1.07h.49l-.69,2.55h-.6l-.33-1.16-.21-.72h0l-.2.72-.34,1.16h-.59l-.7-2.55h0Zm4.14-.74v-.08c0-.16.1-.28.32-.28s.31.12.31.28v.08c0,.16-.09.28-.31.28s-.32-.12-.32-.28Zm.05.74h.53v2.55h-.53v-2.55Zm2.01,2.55c-.37,0-.56-.21-.56-.55v-1.56h-.4v-.44h.22c.18,0,.24-.07.24-.25v-.44h.48v.7h.53v.44h-.53v1.67h.49v.44h-.46Zm1.05-3.63h.53v1.5h.02c.11-.28.32-.48.72-.48.52,0,.83.36.83.99v1.62h-.53v-1.55c0-.39-.15-.59-.48-.59-.28,0-.55.14-.55.44v1.71h-.53v-3.62h0Zm-19.2-9.87c0-2.44,1.57-4.1,3.86-4.1,1.76,0,3.14.98,3.44,2.58h-.99c-.31-1.03-1.28-1.63-2.45-1.63-1.7,0-2.86,1.28-2.86,3.15s1.16,3.16,2.86,3.16c1.18,0,2.16-.61,2.45-1.66h1c-.31,1.63-1.69,2.62-3.46,2.62-2.3,0-3.86-1.67-3.86-4.11h0Zm9.01-3.97h.98v3.48h4.45v-3.48h.98v7.95h-.98v-3.58h-4.45v3.58h-.98v-7.95Zm8.25,0h4.68v.9h-3.7v2.48h3.37v.9h-3.37v2.79h3.87v.9h-4.86v-7.95h0Zm5.78,3.97c0-2.44,1.57-4.1,3.86-4.1,1.76,0,3.14.98,3.44,2.58h-.99c-.31-1.03-1.28-1.63-2.45-1.63-1.7,0-2.86,1.28-2.86,3.15s1.16,3.16,2.86,3.16c1.18,0,2.16-.61,2.45-1.66h1c-.31,1.63-1.69,2.62-3.46,2.62-2.3,0-3.86-1.67-3.86-4.11h0Zm9.01-3.97h.98v3.43l3.07-3.43h1.29l-3.41,3.75,4.1,4.2h-1.33l-3.73-3.74v3.74h-.98v-7.95h0Zm5.65,3.97c0-2.44,1.57-4.1,3.86-4.1s3.85,1.66,3.85,4.1-1.57,4.11-3.85,4.11-3.86-1.67-3.86-4.11Zm6.71,0c0-1.87-1.16-3.15-2.85-3.15s-2.86,1.28-2.86,3.15,1.16,3.16,2.86,3.16,2.85-1.28,2.85-3.16Zm2.42,1.16v-5.13h.98v5.13c0,1.32.94,2,2.03,2s2.02-.68,2.02-2v-5.13h.98v5.13c0,1.96-1.41,2.95-3,2.95s-3.01-.99-3.01-2.95h0Zm9.57-4.24h-2.45v-.9h5.9v.9h-2.46v7.06h-.98v-7.06ZM22.62.16h3.05c2.19,0,3.18,1.52,3.18,2.83s-.99,2.83-3.18,2.83h-.96v2.28h-2.09V.16h0Zm2.85,3.87c.84,0,1.23-.5,1.23-1.04s-.39-1.04-1.23-1.04h-.75v2.08h.75ZM29.94.16h3.04c2.19,0,3.16,1.52,3.16,2.83,0,.81-.37,1.69-1.15,2.25l1.42,2.87h-2.36l-1.1-2.28h-.92v2.28h-2.09V.16Zm2.79,3.87c.85,0,1.26-.5,1.26-1.04s-.41-1.04-1.26-1.04h-.69v2.08h.69ZM37.57.16h5.25v1.73h-3.16v1.35h2.7v1.73h-2.7v1.4h3.29v1.73h-5.38V.16h0Zm6.41,5.25h2.12c.04.74.71,1.05,1.34,1.05.57,0,1.12-.25,1.12-.67,0-1.16-4.46-.24-4.46-3.3,0-1.51,1.29-2.48,3.07-2.48,2.21,0,3.31,1.33,3.4,2.91h-2.12c-.04-.69-.54-1.11-1.21-1.11-.57,0-.99.19-.99.66,0,1.4,4.46.19,4.46,3.32,0,1.49-1.33,2.46-3.24,2.46-2.08,0-3.4-1-3.49-2.85h0Zm9.35-3.39h-2.24V.16h6.58v1.85h-2.25v6.1h-2.09V2.01Zm6.41-1.85h2.62l2.73,7.95h-2.21l-.44-1.42h-2.82l-.44,1.42h-2.16L59.73.16h0Zm2.14,4.8l-.86-2.73-.86,2.73h1.72Zm3.54.45h2.12c.04.74.71,1.05,1.34,1.05.57,0,1.12-.25,1.12-.67,0-1.16-4.46-.24-4.46-3.3,0-1.51,1.29-2.48,3.07-2.48,2.21,0,3.31,1.33,3.4,2.91h-2.12c-.04-.69-.54-1.11-1.21-1.11-.57,0-.99.19-.99.66,0,1.4,4.46.19,4.46,3.32,0,1.49-1.33,2.46-3.24,2.46-2.08,0-3.4-1-3.49-2.85h0ZM73.42.16h2.09v3.05h2.83V.16h2.09v7.95h-2.09v-3.17h-2.83v3.17h-2.09V.16Zm8.16,3.96c0-2.44,1.63-4.1,4.01-4.1s4.02,1.66,4.02,4.1-1.63,4.14-4.02,4.14-4.01-1.67-4.01-4.14Zm4.01,2.34c1.11,0,1.87-.96,1.87-2.34s-.75-2.31-1.87-2.31-1.85.93-1.85,2.31.75,2.34,1.85,2.34ZM90.74.16h3.05c2.19,0,3.18,1.52,3.18,2.83s-.99,2.83-3.18,2.83h-.96v2.28h-2.09V.16h0Zm2.85,3.87c.84,0,1.23-.5,1.23-1.04s-.39-1.04-1.23-1.04h-.75v2.08h.75ZM3.03.16h7.06c5.07,0,7.37,3.52,7.37,6.57s-2.3,6.57-7.37,6.57h-2.22v5.29H3.03V.16h0Z"/>
    <path d="m12.91,9.64h-4.98c-.72,0-1.31-.59-1.31-1.31v-3.2c0-.72.59-1.31,1.31-1.31h4.98c.72,0,1.31.59,1.31,1.31v3.2c0,.72-.59,1.31-1.31,1.31Zm-4.98-5.23c-.4,0-.72.32-.72.72v3.2c0,.39.32.72.72.72h4.98c.4,0,.72-.32.72-.72v-3.2c0-.39-.32-.72-.72-.72h-4.98Zm3.56,3.3c0-.16-.13-.29-.3-.29h-2.76c-.16,0-.3.13-.3.29s.13.29.3.29h2.76c.16,0,.3-.13.3-.29Zm-2.28-1.72c0-.38-.17-.38-.38-.38h-.36c-.21,0-.38,0-.38.38s.17.38.38.38h.36c.21,0,.38,0,.38-.38Z"/>
</svg>
