<?xml version="1.0" encoding="UTF-8"?>
<svg id="Calque_1" xmlns="http://www.w3.org/2000/svg" viewBox="0 0 100 29">
    <defs>
        <style>.cls-1{fill:#a4dbe8;}</style>
    </defs>
    <path d="m47.67,24.26h-1.36c-.09,0-.17.07-.19.16l-.55,3.49c0,.07.04.13.11.13h.65c.09,0,.17-.07.19-.16l.15-.94c.01-.09.09-.16.19-.16h.43c.89,0,1.41-.43,1.55-1.29.06-.38,0-.67-.17-.88-.19-.23-.53-.35-.99-.35h0Zm.16,1.27c-.08.49-.45.49-.81.49h-.2l.15-.91c0-.06.06-.1.11-.1h.1c.24,0,.48,0,.6.14.07.08.09.21.07.38h0Zm3.91-.02h-.65c-.06,0-.1.04-.11.1l-.03.18-.05-.07c-.14-.2-.46-.27-.77-.27-.72,0-1.33.54-1.45,1.31-.06.38.03.75.24,1,.2.23.48.33.82.33.58,0,.9-.37.9-.37l-.03.18c0,.07.04.13.11.13h.59c.09,0,.17-.07.19-.16l.35-2.23c0-.07-.04-.13-.11-.13h0Zm-.91,1.27c-.06.37-.36.62-.74.62-.19,0-.34-.06-.44-.17-.1-.12-.13-.28-.1-.46.06-.37.36-.63.73-.63.18,0,.34.06.44.18s.14.28.11.46h0Zm4.47-1.09l-2.18,3.14s-.09.08-.16.08h-.65c-.09,0-.15-.1-.09-.18l.68-.96-.72-2.11c-.03-.07.03-.15.11-.15h.64c.08,0,.16.06.18.14l.38,1.28.9-1.33c.04-.05.1-.08.16-.08h.65c.09,0,.15.1.09.18h0Zm2.07-1.44h-1.36c-.09,0-.17.07-.19.16l-.55,3.49c0,.07.04.13.11.13h.7c.07,0,.12-.05.13-.11l.16-.99c.01-.09.09-.16.19-.16h.43c.9,0,1.41-.43,1.55-1.29.06-.38,0-.67-.17-.88-.19-.23-.53-.35-.99-.35Zm.16,1.27c-.07.49-.45.49-.81.49h-.2l.15-.91c0-.06.06-.1.11-.1h.1c.24,0,.48,0,.6.14.07.08.09.21.07.38h0Zm3.91-.02h-.65c-.06,0-.1.04-.11.1l-.03.18-.05-.07c-.14-.2-.46-.27-.77-.27-.72,0-1.33.54-1.45,1.31-.06.38.03.75.24,1,.2.23.48.33.82.33.58,0,.9-.37.9-.37l-.03.18c0,.07.04.13.11.13h.59c.09,0,.17-.07.19-.16l.35-2.23c0-.07-.04-.13-.11-.13h0Zm-.91,1.27c-.06.37-.36.62-.74.62-.19,0-.34-.06-.44-.17-.1-.12-.13-.28-.1-.46.06-.37.36-.63.73-.63.18,0,.34.06.44.18s.14.28.11.46h0Zm1.79-2.52h.63c.07,0,.12.06.11.13l-.55,3.49c-.01.09-.09.16-.19.16h-.56c-.07,0-.12-.06-.11-.13l.56-3.55c0-.06.06-.1.11-.1h0Zm-39.56.37h1.51c.56,0,.91.35.91.88s-.31.7-.59.72v.03c.28,0,.71.22.71.79s-.38.98-.88.98h-1.66v-3.4h0Zm.55,1.43h.85c.27,0,.43-.15.43-.41v-.16c0-.26-.16-.41-.43-.41h-.85v.97Zm0,1.49h.95c.28,0,.46-.16.46-.44v-.16c0-.28-.17-.44-.46-.44h-.95v1.03h0Zm4.2.06h-.02c-.09.25-.29.48-.71.48-.52,0-.83-.36-.83-.98v-1.61h.53v1.54c0,.39.16.59.49.59.27,0,.54-.14.54-.44v-1.7h.53v2.53h-.53v-.42Zm1.25-2.85v-.08c0-.16.1-.28.32-.28s.31.12.31.28v.08c0,.16-.09.28-.31.28s-.32-.12-.32-.28Zm.05.73h.53v2.53h-.53v-2.53Zm1.82,2.53c-.36,0-.54-.2-.54-.53v-3.08h.53v3.17h.35v.44s-.34,0-.34,0Zm1.5,0c-.37,0-.56-.2-.56-.55v-1.55h-.4v-.44h.21c.17,0,.23-.07.23-.25v-.44h.48v.69h.53v.44h-.53v1.67h.49v.44h-.46Zm2.27-2.54h.52l.26,1.06.23.96h.01l.26-.96.31-1.06h.48l.31,1.06.27.96h.01l.22-.96.26-1.06h.49l-.68,2.53h-.6l-.33-1.15-.2-.71h0l-.2.71-.34,1.15h-.58l-.69-2.53h0Zm4.12-.73v-.08c0-.16.1-.28.32-.28s.31.12.31.28v.08c0,.16-.09.28-.31.28s-.32-.12-.32-.28Zm.05.73h.53v2.53h-.53v-2.53Zm2,2.53c-.37,0-.56-.2-.56-.55v-1.55h-.4v-.44h.21c.17,0,.23-.07.23-.25v-.44h.48v.69h.53v.44h-.53v1.67h.49v.44h-.46Zm1.05-3.61h.53v1.49h.02c.11-.27.32-.48.71-.48.52,0,.82.36.82.98v1.61h-.53v-1.54c0-.39-.15-.59-.48-.59-.28,0-.55.14-.55.44v1.7h-.53v-3.61h0Zm-19.11-9.83c0-2.43,1.56-4.08,3.85-4.08,1.75,0,3.12.98,3.43,2.57h-.99c-.31-1.02-1.27-1.62-2.44-1.62-1.69,0-2.84,1.27-2.84,3.13s1.15,3.14,2.84,3.14c1.18,0,2.15-.61,2.44-1.66h1c-.31,1.62-1.68,2.61-3.44,2.61-2.29,0-3.85-1.67-3.85-4.09h0Zm8.97-3.95h.98v3.46h4.43v-3.46h.98v7.92h-.98v-3.56h-4.43v3.56h-.98v-7.92Zm8.21,0h4.65v.89h-3.68v2.46h3.36v.89h-3.36v2.77h3.86v.89h-4.83v-7.92h0Zm5.75,3.95c0-2.43,1.56-4.08,3.85-4.08,1.75,0,3.12.98,3.43,2.57h-.99c-.31-1.02-1.27-1.62-2.44-1.62-1.69,0-2.84,1.27-2.84,3.13s1.15,3.14,2.84,3.14c1.18,0,2.15-.61,2.44-1.66h1c-.31,1.62-1.68,2.61-3.44,2.61-2.29,0-3.85-1.67-3.85-4.09h0Zm8.97-3.95h.98v3.42l3.06-3.42h1.29l-3.39,3.74,4.08,4.18h-1.32l-3.71-3.73v3.73h-.98v-7.92h0Zm5.62,3.95c0-2.43,1.56-4.08,3.85-4.08s3.83,1.66,3.83,4.08-1.56,4.09-3.83,4.09-3.85-1.67-3.85-4.09Zm6.68,0c0-1.86-1.15-3.13-2.83-3.13s-2.84,1.27-2.84,3.13,1.15,3.14,2.84,3.14,2.83-1.27,2.83-3.14Zm2.4,1.15v-5.11h.98v5.11c0,1.31.94,1.99,2.02,1.99s2.01-.68,2.01-1.99v-5.11h.98v5.11c0,1.95-1.41,2.94-2.99,2.94s-3-.99-3-2.94h0Zm9.52-4.22h-2.44v-.89h5.87v.89h-2.45v7.02h-.98v-7.02ZM22.75.23h3.03c2.18,0,3.17,1.51,3.17,2.82s-.99,2.82-3.17,2.82h-.95v2.27h-2.08V.23h0Zm2.83,3.86c.83,0,1.23-.5,1.23-1.04s-.39-1.04-1.23-1.04h-.75v2.07h.75ZM30.03.23h3.02c2.18,0,3.14,1.51,3.14,2.82,0,.81-.37,1.68-1.14,2.24l1.42,2.86h-2.35l-1.1-2.27h-.92v2.27h-2.08V.23Zm2.77,3.86c.84,0,1.25-.5,1.25-1.04s-.41-1.04-1.25-1.04h-.69v2.07h.69ZM37.62.23h5.22v1.73h-3.14v1.35h2.69v1.73h-2.69v1.39h3.27v1.73h-5.36V.23h0Zm6.38,5.22h2.11c.04.74.7,1.05,1.33,1.05.57,0,1.12-.25,1.12-.67,0-1.15-4.44-.24-4.44-3.29,0-1.5,1.29-2.46,3.06-2.46,2.2,0,3.3,1.32,3.38,2.89h-2.11c-.04-.69-.53-1.11-1.2-1.11-.57,0-.99.19-.99.65,0,1.39,4.44.19,4.44,3.31,0,1.49-1.32,2.45-3.23,2.45-2.07,0-3.38-1-3.48-2.83h0Zm9.31-3.38h-2.23V.23h6.55v1.84h-2.24v6.07h-2.08V2.07Zm6.38-1.84h2.61l2.71,7.92h-2.2l-.44-1.42h-2.81l-.44,1.42h-2.15L59.68.23h0Zm2.13,4.77l-.86-2.71-.86,2.71h1.72Zm3.52.45h2.11c.04.74.7,1.05,1.33,1.05.57,0,1.12-.25,1.12-.67,0-1.15-4.44-.24-4.44-3.29,0-1.5,1.29-2.46,3.06-2.46,2.2,0,3.3,1.32,3.38,2.89h-2.11c-.04-.69-.53-1.11-1.2-1.11-.57,0-.99.19-.99.65,0,1.39,4.44.19,4.44,3.31,0,1.49-1.32,2.45-3.23,2.45-2.07,0-3.38-1-3.48-2.83h0ZM73.31.23h2.08v3.03h2.82V.23h2.08v7.92h-2.08v-3.15h-2.82v3.15h-2.08V.23Zm8.12,3.94c0-2.43,1.62-4.08,3.99-4.08s4,1.66,4,4.08-1.62,4.12-4,4.12-3.99-1.67-3.99-4.12Zm3.99,2.33c1.11,0,1.86-.95,1.86-2.33s-.75-2.3-1.86-2.3-1.84.93-1.84,2.3.75,2.33,1.84,2.33ZM90.55.23h3.03c2.18,0,3.17,1.51,3.17,2.82s-.99,2.82-3.17,2.82h-.95v2.27h-2.08V.23h0Zm2.83,3.86c.83,0,1.23-.5,1.23-1.04s-.39-1.04-1.23-1.04h-.75v2.07h.75ZM3.25.23h7.03c5.05,0,7.33,3.5,7.33,6.53s-2.29,6.53-7.33,6.53h-2.21v5.27H3.25V.23h0Z"/>
    <path class="cls-1"
          d="m13.09,9.66h-4.95c-.72,0-1.31-.58-1.31-1.31v-3.18c0-.72.59-1.31,1.31-1.31h4.95c.72,0,1.31.58,1.31,1.31v3.18c0,.72-.59,1.31-1.31,1.31Zm-4.95-5.2c-.4,0-.72.32-.72.72v3.18c0,.39.32.72.72.72h4.95c.4,0,.72-.32.72-.72v-3.18c0-.39-.32-.72-.72-.72h-4.95Zm3.54,3.28c0-.16-.13-.29-.3-.29h-2.75c-.16,0-.3.13-.3.29s.13.29.3.29h2.75c.16,0,.3-.13.3-.29Zm-2.27-1.72c0-.38-.17-.38-.38-.38h-.36c-.21,0-.38,0-.38.38s.17.38.38.38h.36c.21,0,.38,0,.38-.38Z"/>
</svg>
