<?xml version="1.0" encoding="UTF-8"?>
<svg id="Calque_1" xmlns="http://www.w3.org/2000/svg" viewBox="0 0 100 29">
    <defs>
        <style>.cls-1{fill:#fff;}</style>
    </defs>
    <path class="cls-1"
          d="m47.69,24.19h-1.35c-.09,0-.17.07-.19.16l-.55,3.46c0,.07.04.13.11.13h.65c.09,0,.17-.07.19-.16l.15-.93c.01-.09.09-.16.19-.16h.43c.89,0,1.4-.43,1.54-1.28.06-.37,0-.67-.17-.87-.19-.23-.53-.34-.98-.34h0Zm.16,1.26c-.08.49-.45.49-.8.49h-.2l.14-.9c0-.06.06-.1.11-.1h.1c.24,0,.48,0,.59.14.07.08.09.21.07.38h0Zm3.88-.02h-.65c-.06,0-.1.04-.11.1l-.03.18-.05-.07c-.14-.2-.45-.27-.76-.27-.71,0-1.32.54-1.45,1.3-.06.38.03.74.24.99.2.23.48.33.82.33.58,0,.89-.37.89-.37l-.03.18c0,.07.04.13.11.13h.58c.09,0,.17-.07.19-.16l.35-2.22c0-.07-.04-.13-.11-.13h0Zm-.9,1.26c-.06.37-.36.62-.73.62-.19,0-.34-.06-.44-.17-.1-.11-.13-.28-.1-.46.06-.37.36-.62.72-.62.18,0,.33.06.43.18s.14.28.11.46h0Zm4.44-1.08l-2.16,3.12s-.09.08-.15.08h-.65c-.09,0-.14-.1-.09-.18l.67-.95-.71-2.1c-.03-.07.03-.15.11-.15h.64c.08,0,.16.06.18.13l.38,1.27.9-1.32c.04-.05.1-.08.15-.08h.65c.09,0,.14.1.09.18h0Zm2.06-1.43h-1.35c-.09,0-.17.07-.19.16l-.55,3.46c0,.07.04.13.11.13h.69c.07,0,.12-.05.13-.11l.15-.98c.01-.09.09-.16.19-.16h.43c.89,0,1.4-.43,1.54-1.28.06-.37,0-.67-.17-.87-.19-.23-.53-.34-.98-.34Zm.16,1.27c-.07.49-.44.49-.8.49h-.2l.14-.9c0-.06.06-.1.11-.1h.1c.24,0,.48,0,.59.14.07.08.09.21.07.38h0Zm3.88-.02h-.65c-.06,0-.1.04-.11.1l-.03.18-.05-.07c-.14-.2-.45-.27-.76-.27-.71,0-1.32.54-1.45,1.3-.06.38.03.74.24.99.2.23.48.33.82.33.58,0,.89-.37.89-.37l-.03.18c0,.07.04.13.11.13h.58c.09,0,.17-.07.19-.16l.35-2.22c0-.07-.04-.13-.11-.13h0Zm-.9,1.26c-.06.37-.36.62-.73.62-.19,0-.34-.06-.44-.17-.1-.11-.13-.28-.1-.46.06-.37.36-.62.72-.62.18,0,.33.06.43.18s.14.28.11.46h0Zm1.78-2.51h.62c.07,0,.12.06.11.13l-.55,3.46c-.01.09-.09.16-.19.16h-.56c-.07,0-.12-.06-.11-.13l.55-3.53c0-.06.06-.1.11-.1h0Zm-39.3.37h1.5c.56,0,.9.34.9.87s-.31.69-.59.72v.03c.28,0,.71.22.71.79s-.37.97-.87.97h-1.65v-3.38h0Zm.55,1.43h.85c.27,0,.43-.14.43-.4v-.15c0-.26-.16-.4-.43-.4h-.85v.96Zm0,1.48h.94c.28,0,.46-.15.46-.43v-.16c0-.28-.17-.43-.46-.43h-.94v1.03h0Zm4.17.06h-.02c-.09.25-.29.48-.71.48-.52,0-.82-.35-.82-.97v-1.6h.53v1.53c0,.38.16.59.49.59.27,0,.54-.14.54-.44v-1.68h.53v2.52h-.53v-.42Zm1.24-2.83v-.08c0-.16.1-.28.31-.28s.31.11.31.28v.08c0,.16-.09.28-.31.28s-.31-.11-.31-.28Zm.05.73h.53v2.52h-.53v-2.52Zm1.81,2.52c-.36,0-.54-.2-.54-.52v-3.06h.53v3.15h.35v.43h-.34Zm1.49,0c-.36,0-.56-.2-.56-.55v-1.54h-.39v-.43h.21c.17,0,.23-.07.23-.25v-.44h.48v.69h.53v.43h-.53v1.65h.49v.43h-.46Zm2.25-2.52h.51l.26,1.06.23.95h.01l.26-.95.3-1.06h.48l.31,1.06.27.95h.01l.22-.95.26-1.06h.49l-.68,2.52h-.6l-.33-1.15-.2-.71h0l-.2.71-.33,1.15h-.58l-.69-2.52h0Zm4.09-.73v-.08c0-.16.1-.28.31-.28s.31.11.31.28v.08c0,.16-.09.28-.31.28s-.31-.11-.31-.28Zm.05.73h.53v2.52h-.53v-2.52Zm1.99,2.52c-.36,0-.56-.2-.56-.55v-1.54h-.39v-.43h.21c.17,0,.23-.07.23-.25v-.44h.48v.69h.53v.43h-.53v1.65h.49v.43h-.46Zm1.04-3.59h.53v1.48h.02c.1-.27.32-.48.71-.48.51,0,.82.36.82.98v1.6h-.53v-1.53c0-.39-.15-.59-.48-.59-.28,0-.55.14-.55.43v1.69h-.53v-3.58h0Zm-18.98-9.76c0-2.41,1.55-4.06,3.82-4.06,1.74,0,3.1.97,3.41,2.55h-.98c-.31-1.02-1.27-1.61-2.43-1.61-1.68,0-2.82,1.27-2.82,3.11s1.15,3.12,2.82,3.12c1.17,0,2.14-.6,2.43-1.65h.99c-.31,1.61-1.67,2.59-3.42,2.59-2.27,0-3.82-1.65-3.82-4.07h0Zm8.91-3.92h.97v3.44h4.4v-3.44h.97v7.87h-.97v-3.54h-4.4v3.54h-.97v-7.87Zm8.16,0h4.62v.89h-3.65v2.45h3.34v.89h-3.34v2.76h3.83v.89h-4.8v-7.87h0Zm5.71,3.92c0-2.41,1.55-4.06,3.82-4.06,1.74,0,3.1.97,3.41,2.55h-.98c-.31-1.02-1.27-1.61-2.43-1.61-1.68,0-2.82,1.27-2.82,3.11s1.15,3.12,2.82,3.12c1.17,0,2.14-.6,2.43-1.65h.99c-.31,1.61-1.67,2.59-3.42,2.59-2.27,0-3.82-1.65-3.82-4.07h0Zm8.91-3.92h.97v3.4l3.04-3.4h1.28l-3.37,3.71,4.06,4.15h-1.31l-3.69-3.7v3.7h-.97v-7.87h0Zm5.58,3.93c0-2.41,1.55-4.06,3.82-4.06s3.81,1.65,3.81,4.06-1.55,4.07-3.81,4.07-3.82-1.65-3.82-4.07Zm6.64,0c0-1.85-1.15-3.11-2.82-3.11s-2.82,1.27-2.82,3.11,1.15,3.12,2.82,3.12,2.82-1.27,2.82-3.12Zm2.39,1.15v-5.07h.97v5.07c0,1.3.93,1.98,2.01,1.98s2-.68,2-1.98v-5.07h.97v5.07c0,1.94-1.4,2.92-2.97,2.92s-2.98-.98-2.98-2.92h0Zm9.46-4.19h-2.43v-.89h5.83v.89h-2.43v6.98h-.97v-6.98ZM22.93.32h3.02c2.16,0,3.15,1.5,3.15,2.8s-.98,2.8-3.15,2.8h-.95v2.26h-2.07V.32h0Zm2.82,3.83c.83,0,1.22-.5,1.22-1.03s-.39-1.03-1.22-1.03h-.74v2.06h.74ZM30.16.32h3.01c2.16,0,3.12,1.5,3.12,2.8,0,.8-.37,1.67-1.13,2.22l1.41,2.84h-2.33l-1.09-2.26h-.91v2.26h-2.07V.32Zm2.76,3.83c.84,0,1.24-.5,1.24-1.03s-.4-1.03-1.24-1.03h-.68v2.06h.68Zm4.78-3.83h5.19v1.71h-3.12v1.34h2.67v1.71h-2.67v1.38h3.25v1.71h-5.32V.32h0Zm6.33,5.19h2.09c.04.73.7,1.04,1.32,1.04.57,0,1.11-.25,1.11-.66,0-1.15-4.41-.24-4.41-3.26,0-1.49,1.28-2.45,3.04-2.45,2.19,0,3.28,1.31,3.36,2.87h-2.09c-.04-.68-.53-1.1-1.2-1.1-.57,0-.98.19-.98.65,0,1.38,4.41.19,4.41,3.29,0,1.48-1.31,2.43-3.21,2.43-2.06,0-3.36-.99-3.45-2.82h0Zm9.24-3.36h-2.21V.32h6.51v1.83h-2.22v6.03h-2.07V2.15Zm6.34-1.83h2.59l2.7,7.87h-2.19l-.44-1.41h-2.79l-.44,1.41h-2.14l2.71-7.87h0Zm2.12,4.74l-.85-2.7-.85,2.7h1.7Zm3.5.45h2.09c.04.73.7,1.04,1.32,1.04.57,0,1.11-.25,1.11-.66,0-1.15-4.41-.24-4.41-3.26,0-1.49,1.28-2.45,3.04-2.45,2.19,0,3.28,1.31,3.36,2.87h-2.09c-.04-.68-.53-1.1-1.2-1.1-.57,0-.98.19-.98.65,0,1.38,4.41.19,4.41,3.29,0,1.48-1.31,2.43-3.21,2.43-2.06,0-3.36-.99-3.45-2.82h0Zm7.92-5.19h2.07v3.02h2.8V.32h2.07v7.87h-2.07v-3.13h-2.8v3.13h-2.07V.32Zm8.07,3.92c0-2.41,1.61-4.06,3.96-4.06s3.98,1.65,3.98,4.06-1.61,4.09-3.98,4.09-3.96-1.65-3.96-4.09Zm3.96,2.32c1.1,0,1.85-.95,1.85-2.32s-.74-2.28-1.85-2.28-1.83.92-1.83,2.28.74,2.32,1.83,2.32Zm5.1-6.23h3.02c2.16,0,3.15,1.5,3.15,2.8s-.98,2.8-3.15,2.8h-.95v2.26h-2.07V.32h0Zm2.82,3.83c.83,0,1.22-.5,1.22-1.03s-.39-1.03-1.22-1.03h-.74v2.06h.74ZM3.55.32h6.98c5.01,0,7.29,3.48,7.29,6.49s-2.27,6.49-7.29,6.49h-2.19v5.23H3.55V.32h0Z"/>
    <path d="m13.32,9.69h-4.92c-.71,0-1.3-.58-1.3-1.3v-3.16c0-.71.58-1.3,1.3-1.3h4.92c.71,0,1.3.58,1.3,1.3v3.16c0,.71-.58,1.3-1.3,1.3Zm-4.92-5.17c-.39,0-.71.32-.71.71v3.16c0,.39.32.71.71.71h4.92c.39,0,.71-.32.71-.71v-3.16c0-.39-.32-.71-.71-.71h-4.92Zm3.52,3.26c0-.16-.13-.29-.29-.29h-2.73c-.16,0-.29.13-.29.29s.13.29.29.29h2.73c.16,0,.29-.13.29-.29Zm-2.25-1.7c0-.37-.17-.38-.38-.38h-.36c-.21,0-.38,0-.38.38s.17.38.38.38h.36c.21,0,.38,0,.38-.38Z"/>
</svg>
