<svg
  width="40"
  height="24"
  viewBox="0 0 40 24"
  preserveAspectRatio="xMinYMin meet"
  xmlns="http://www.w3.org/2000/svg"
>
  <path
    d="M38.333 24H1.667C.75 24 0 23.28 0 22.4V1.6C0 .72.75 0 1.667 0h36.666C39.25 0 40 .72 40 1.6v20.8c0 .88-.75 1.6-1.667 1.6z"
    fill="#FFF"/>
  <path
    d="M14.67 22.39V21c.022-.465-.303-.86-.767-.882h-.116c-.3-.023-.603.14-.788.394-.164-.255-.442-.417-.743-.394-.256-.023-.51.116-.65.324v-.278h-.487v2.203h.487v-1.183c-.046-.278.162-.533.44-.58h.094c.325 0 .488.21.488.58v1.23h.487v-1.23c-.047-.278.162-.556.44-.58h.093c.325 0 .487.21.487.58v1.23l.534-.024zm2.712-1.09v-1.113h-.487v.28c-.162-.21-.417-.326-.695-.326-.65 0-1.16.51-1.16 1.16 0 .65.51 1.16 1.16 1.16.278 0 .533-.117.695-.325v.278h.487V21.3zm-1.786 0c.024-.37.348-.65.72-.626.37.023.65.348.626.72-.023.347-.302.625-.673.625-.372 0-.674-.28-.674-.65-.023-.047-.023-.047 0-.07zm12.085-1.16c.163 0 .325.024.465.094.14.046.278.14.37.255.117.115.186.23.256.37.117.3.117.626 0 .927-.046.14-.138.255-.254.37-.116.117-.232.186-.37.256-.303.116-.65.116-.952 0-.14-.046-.28-.14-.37-.255-.118-.116-.187-.232-.257-.37-.116-.302-.116-.627 0-.928.047-.14.14-.255.256-.37.115-.117.23-.187.37-.256.163-.07.325-.116.488-.093zm0 .465c-.092 0-.185.023-.278.046-.092.024-.162.094-.232.14-.07.07-.116.14-.14.232-.068.185-.068.394 0 .58.024.092.094.162.14.23.07.07.14.117.232.14.186.07.37.07.557 0 .092-.023.16-.092.23-.14.07-.068.117-.138.14-.23.07-.186.07-.395 0-.58-.023-.093-.093-.162-.14-.232-.07-.07-.138-.116-.23-.14-.094-.045-.187-.07-.28-.045zm-7.677.695c0-.695-.44-1.16-1.043-1.16-.65 0-1.16.534-1.137 1.183.023.65.534 1.16 1.183 1.136.325 0 .65-.093.905-.302l-.23-.348c-.187.14-.42.232-.65.232-.326.023-.627-.21-.673-.533h1.646v-.21zm-1.646-.21c.023-.3.278-.532.58-.532.3 0 .556.232.556.533h-1.136zm3.664-.346c-.207-.116-.44-.186-.695-.186-.255 0-.417.093-.417.255 0 .163.162.186.37.21l.233.022c.488.07.766.278.766.672 0 .395-.37.72-1.02.72-.348 0-.673-.094-.95-.28l.23-.37c.21.162.465.232.743.232.324 0 .51-.094.51-.28 0-.115-.117-.185-.395-.23l-.232-.024c-.487-.07-.765-.302-.765-.65 0-.44.37-.718.927-.718.325 0 .627.07.905.232l-.21.394zm2.32-.116h-.788v.997c0 .23.07.37.325.37.14 0 .3-.046.417-.115l.14.417c-.186.116-.395.162-.604.162-.58 0-.765-.302-.765-.812v-1.02h-.44v-.44h.44v-.673h.487v.672h.79v.44zm1.67-.51c.117 0 .233.023.35.07l-.14.463c-.093-.045-.21-.045-.302-.045-.325 0-.464.208-.464.58v1.25h-.487v-2.2h.487v.277c.116-.255.325-.37.557-.394z"
    fill="#000"/>
  <path fill="#7673C0" d="M23.64 3.287h-7.305V16.41h7.306"/>
  <path
    d="M16.8 9.848c0-2.55 1.183-4.985 3.2-6.56C16.384.435 11.12 1.06 8.29 4.7 5.435 8.32 6.06 13.58 9.703 16.41c3.038 2.387 7.283 2.387 10.32 0-2.04-1.578-3.223-3.99-3.223-6.562z"
    fill="#EB001B"/>
  <path
    d="M33.5 9.848c0 4.613-3.735 8.346-8.35 8.346-1.88 0-3.69-.626-5.15-1.785 3.618-2.83 4.245-8.092 1.415-11.71-.418-.532-.882-.996-1.415-1.413C23.618.437 28.883 1.06 31.736 4.7 32.873 6.163 33.5 7.994 33.5 9.85z"
    fill="#00A1DF"/>
</svg>
