<svg width="30" height="30" viewBox="0 0 30 30" fill="none" xmlns="http://www.w3.org/2000/svg">
<path d="M29.824 9.19893C29.658 8.97779 29.3976 8.84766 29.1211 8.84766H23.726C23.2982 5.87016 20.7308 3.57422 17.6367 3.57422C14.5427 3.57422 11.9752 5.87016 11.5474 8.84766H6.97389L5.82551 0.755449C5.76404 0.32209 5.39309 0 4.95533 0H0.878906C0.393516 0 0 0.393516 0 0.878906C0 1.3643 0.393516 1.75781 0.878906 1.75781H4.19238C4.19385 1.76807 6.65988 19.1951 6.66035 19.198C6.81311 20.2061 7.30576 21.1297 8.05072 21.8135C7.46426 22.2975 7.08984 23.0297 7.08984 23.8477C7.08984 25.0619 7.91514 26.0865 9.03404 26.3914C8.91428 26.6924 8.84766 27.0202 8.84766 27.3633C8.84766 28.8172 10.0305 30 11.4844 30C12.9383 30 14.1211 28.8172 14.1211 27.3633C14.1211 27.0552 14.0675 26.7595 13.9699 26.4838H21.3035C21.206 26.7595 21.1523 27.0551 21.1523 27.3633C21.1523 28.8172 22.3352 30 23.7891 30C25.2429 30 26.4258 28.8172 26.4258 27.3633C26.4258 25.9094 25.2429 24.7266 23.7891 24.7266H9.72656C9.24193 24.7266 8.84766 24.3323 8.84766 23.8477C8.84766 23.363 9.24193 22.9688 9.72656 22.9688H22.8926C24.8522 22.9688 26.5869 21.6586 27.1127 19.7818L29.965 9.97195C30.0422 9.70641 29.99 9.42006 29.824 9.19893ZM23.7891 26.4844C24.2737 26.4844 24.668 26.8787 24.668 27.3633C24.668 27.8479 24.2737 28.2422 23.7891 28.2422C23.3044 28.2422 22.9102 27.8479 22.9102 27.3633C22.9102 26.8787 23.3044 26.4844 23.7891 26.4844ZM11.4844 26.4844C11.969 26.4844 12.3633 26.8787 12.3633 27.3633C12.3633 27.8479 11.969 28.2422 11.4844 28.2422C10.9997 28.2422 10.6055 27.8479 10.6055 27.3633C10.6055 26.8787 10.9997 26.4844 11.4844 26.4844ZM17.6367 5.33203C20.0599 5.33203 22.0312 7.30342 22.0312 9.72656C22.0312 12.1497 20.0599 14.1211 17.6367 14.1211C15.2136 14.1211 13.2422 12.1497 13.2422 9.72656C13.2422 7.30342 15.2136 5.33203 17.6367 5.33203ZM25.421 19.3048C25.1078 20.4271 24.0681 21.2109 22.8926 21.2109C22.3921 21.2109 11.7406 21.2109 11.0097 21.2109C9.69779 21.2109 8.60039 20.2554 8.39883 18.9386L7.22262 10.6055H11.5474C11.9752 13.583 14.5427 15.8789 17.6367 15.8789C20.7308 15.8789 23.2982 13.583 23.726 10.6055H27.9503C27.9503 10.6055 25.4218 19.3017 25.421 19.3048ZM16.1364 12.1058C16.4796 12.449 17.0361 12.4491 17.3793 12.1058L20.016 9.4691C20.3593 9.12586 20.3593 8.5694 20.016 8.22615C19.6729 7.88291 19.1163 7.88291 18.7731 8.22615L16.7578 10.2414L16.5004 9.98402C16.1572 9.64078 15.6006 9.64078 15.2574 9.98402C14.9142 10.3273 14.9142 10.8837 15.2574 11.227L16.1364 12.1058Z" fill="#00D6A0"/>
</svg>
