<svg width="63" height="24" viewBox="0 0 63 24" fill="none" xmlns="http://www.w3.org/2000/svg">
<g clip-path="url(#clip0_188_6033)">
<path d="M59.0685 24H0L3.93141 0H63L59.0685 24Z" fill="#393A41"/>
<path d="M19.4342 8C16.7806 8 14.7661 9.98941 14.7661 12.3598C14.7661 14.5044 16.4194 16 18.67 16C21.3236 16 23.3242 13.9541 23.3242 11.5838C23.3381 9.42504 21.6848 8 19.4342 8ZM18.8368 13.9824C17.8226 13.9824 17.114 13.3051 17.114 12.261C17.114 11.1041 17.9893 10.0035 19.2536 10.0035C20.2677 10.0035 20.9763 10.709 20.9763 11.7531C20.9902 12.9242 20.101 13.9824 18.8368 13.9824Z" fill="#EDEDED"/>
<path d="M35.3973 8C32.7437 8 30.7432 9.98941 30.7432 12.3598C30.7432 14.5044 32.3964 16 34.6471 16C37.3004 16 39.3012 13.9541 39.3012 11.5838C39.3151 9.42504 37.6619 8 35.3973 8ZM34.8138 13.9824C33.7995 13.9824 33.091 13.3051 33.091 12.261C33.091 11.1041 33.9661 10.0035 35.2306 10.0035C36.2446 10.0035 36.9531 10.709 36.9531 11.7531C36.9531 12.9242 36.078 13.9824 34.8138 13.9824Z" fill="#EDEDED"/>
<path d="M47.1088 10.5257C47.1088 9.08655 46.0113 8.16943 44.0108 8.16943H41.2044L39.9678 15.8308H42.3297L42.7185 13.4181H42.8298L44.0801 15.8308H46.7894L45.0527 13.15C46.3447 12.6985 47.1088 11.725 47.1088 10.5257ZM43.3299 11.7955H42.9826L43.2467 10.1871H43.5661C44.3024 10.1871 44.6915 10.4128 44.6915 10.9067C44.6915 11.4851 44.1357 11.7955 43.3299 11.7955Z" fill="#EDEDED"/>
<path d="M12.0568 11.231C11.1537 10.7654 10.9592 10.6526 10.9592 10.3986C10.9592 10.0882 11.3205 9.93299 11.8067 9.93299C12.3763 9.93299 13.2377 10.0035 14.0851 10.8219C14.2935 10.1587 14.6409 9.56613 15.0855 9.04408C13.8907 8.35275 12.7792 8 11.765 8C9.75056 8 8.58354 9.10053 8.58354 10.4268C8.58354 11.5697 9.43102 12.1623 10.4313 12.6843C11.3344 13.1499 11.5566 13.3051 11.5566 13.5873C11.5566 13.8977 11.1815 14.067 10.6814 14.067C9.82002 14.067 8.81971 13.5167 8.22231 12.9524L7.875 15.0829C8.48628 15.5344 9.37545 16 10.7231 16C12.807 16 13.9323 14.9277 13.9323 13.5591C13.9323 12.4303 13.2099 11.8236 12.0568 11.231Z" fill="#EDEDED"/>
<path d="M29.5619 11.5275H26.7834L27.0057 10.1871H29.9788C30.3678 9.38285 30.965 8.69149 31.7013 8.16943H26.8387C25.7552 8.16943 24.8383 8.91725 24.6855 9.93311L23.7407 15.8449H26.1025L26.4915 13.4322H29.2978L29.5063 12.12C29.5202 11.9084 29.5341 11.725 29.5619 11.5275Z" fill="#EDEDED"/>
<path d="M47.1646 8.16943C47.8035 8.66327 48.1925 9.35463 48.276 10.1871H50.2487L49.3457 15.8308H51.7074L52.6104 10.1871H54.8057L55.1251 8.16943H47.1646Z" fill="#EDEDED"/>
</g>
<defs>
<clipPath id="clip0_188_6033">
<rect width="63" height="24" fill="white"/>
</clipPath>
</defs>
</svg>
