<svg
  width="40"
  height="24"
  viewBox="0 0 40 24"
  preserveAspectRatio="xMinYMin meet"
  xmlns="http://www.w3.org/2000/svg"
>
  <path d="M38.333 24H1.667C.75 24 0 23.28 0 22.4V1.6C0 .72.75 0 1.667 0h36.666C39.25 0 40 .72 40 1.6v20.8c0 .88-.75 1.6-1.667 1.6z" fill="#FFF" />
  <path d="M9.877 2h8.126c1.135 0 1.84.93 1.575 2.077l-3.783 16.35c-.267 1.142-1.403 2.073-2.538 2.073H5.13c-1.134 0-1.84-.93-1.574-2.073L7.34 4.076C7.607 2.93 8.74 2 9.878 2z" fill="#E21836" />
  <path d="M17.325 2h9.345c1.134 0 .623.93.356 2.077l-3.783 16.35c-.265 1.142-.182 2.073-1.32 2.073H12.58c-1.137 0-1.84-.93-1.574-2.073l3.783-16.35C15.056 2.93 16.19 2 17.324 2z" fill="#00447B" />
  <path d="M26.3 2h8.126c1.136 0 1.84.93 1.575 2.077l-3.782 16.35c-.266 1.142-1.402 2.073-2.54 2.073h-8.122c-1.137 0-1.842-.93-1.574-2.073l3.78-16.35C24.03 2.93 25.166 2 26.303 2z" fill="#007B84" />
  <path d="M27.633 14.072l-.99 3.3h.266l-.208.68h-.266l-.062.212h-.942l.064-.21H23.58l.193-.632h.194l1.005-3.35.2-.676h.962l-.1.34s.255-.184.498-.248c.242-.064 1.636-.088 1.636-.088l-.206.672h-.33zm-1.695 0l-.254.843s.285-.13.44-.172c.16-.04.395-.057.395-.057l.182-.614h-.764zm-.38 1.262l-.263.877s.29-.15.447-.196c.157-.037.396-.066.396-.066l.185-.614h-.766zm-.614 2.046h.767l.222-.74h-.765l-.223.74z" fill="#FEFEFE" />
  <path d="M28.055 13.4h1.027l.01.385c-.005.065.05.096.17.096h.208l-.19.637h-.555c-.48.035-.662-.172-.65-.406l-.02-.71zM28.193 16.415h-.978l.167-.566H28.5l.16-.517h-1.104l.19-.638h3.072l-.193.638h-1.03l-.16.516h1.032l-.17.565H29.18l-.2.24h.454l.11.712c.013.07.014.116.036.147.023.026.158.038.238.038h.137l-.21.694h-.348c-.054 0-.133-.004-.243-.01-.105-.008-.18-.07-.25-.105-.064-.03-.16-.11-.182-.24l-.11-.712-.507.7c-.162.222-.38.39-.748.39h-.712l.186-.62h.273c.078 0 .15-.03.2-.056.052-.023.098-.05.15-.126l.74-1.05zM17.478 14.867h2.59l-.19.622H18.84l-.16.53h1.06l-.194.64h-1.06l-.256.863c-.03.095.25.108.353.108l.53-.072-.212.71h-1.193c-.096 0-.168-.013-.272-.037-.1-.023-.145-.07-.19-.138-.043-.07-.11-.128-.064-.278l.343-1.143h-.588l.195-.65h.592l.156-.53h-.588l.188-.623zM19.223 13.75h1.063l-.194.65H18.64l-.157.136c-.067.066-.09.038-.18.087-.08.04-.254.123-.477.123h-.466l.19-.625h.14c.118 0 .198-.01.238-.036.046-.03.098-.096.157-.203l.267-.487h1.057l-.187.356zM20.74 13.4h.905l-.132.46s.286-.23.487-.313c.2-.075.65-.143.65-.143l1.464-.007-.498 1.672c-.085.286-.183.472-.244.555-.055.087-.12.16-.248.23-.124.066-.236.104-.34.115-.096.007-.244.01-.45.012h-1.41l-.4 1.324c-.037.13-.055.194-.03.23.02.03.068.066.135.066l.62-.06-.21.726h-.698c-.22 0-.383-.004-.495-.013-.108-.01-.22 0-.295-.058-.065-.058-.164-.133-.162-.21.007-.073.037-.192.082-.356l1.268-4.23zm1.922 1.69h-1.484l-.09.3h1.283c.152-.018.184.004.196-.003l.096-.297zm-1.402-.272s.29-.266.786-.353c.112-.022.82-.015.82-.015l.106-.357h-1.496l-.216.725z" fill="#FEFEFE" />
  <path d="M23.382 16.1l-.084.402c-.036.125-.067.22-.16.302-.1.084-.216.172-.488.172l-.502.02-.004.455c-.006.13.028.117.048.138.024.022.045.032.067.04l.157-.008.48-.028-.198.663h-.552c-.385 0-.67-.008-.765-.084-.092-.057-.105-.132-.103-.26l.035-1.77h.88l-.013.362h.212c.072 0 .12-.007.15-.026.027-.02.047-.048.06-.093l.087-.282h.692zM10.84 7.222c-.032.143-.596 2.763-.598 2.764-.12.53-.21.91-.508 1.152-.172.14-.37.21-.6.21-.37 0-.587-.185-.624-.537l-.007-.12.113-.712s.593-2.388.7-2.703c.002-.017.005-.026.007-.035-1.152.01-1.357 0-1.37-.018-.007.024-.037.173-.037.173l-.605 2.688-.05.23-.1.746c0 .22.042.4.13.553.275.485 1.06.557 1.504.557.573 0 1.11-.123 1.47-.345.63-.375.797-.962.944-1.48l.067-.267s.61-2.48.716-2.803c.003-.017.006-.026.01-.035-.835.01-1.08 0-1.16-.018zM14.21 12.144c-.407-.006-.55-.006-1.03.018l-.018-.036c.042-.182.087-.363.127-.548l.06-.25c.086-.39.173-.843.184-.98.007-.084.036-.29-.2-.29-.1 0-.203.048-.307.096-.058.207-.174.79-.23 1.055-.118.558-.126.62-.178.897l-.036.037c-.42-.006-.566-.006-1.05.018l-.024-.04c.08-.332.162-.668.24-.998.203-.9.25-1.245.307-1.702l.04-.028c.47-.067.585-.08 1.097-.185l.043.047-.077.287c.086-.052.168-.104.257-.15.242-.12.51-.155.658-.155.223 0 .468.062.57.323.098.232.034.52-.094 1.084l-.066.287c-.13.627-.152.743-.225 1.174l-.05.036zM15.87 12.144c-.245 0-.405-.006-.56 0-.153 0-.303.008-.532.018l-.013-.02-.015-.02c.062-.238.097-.322.128-.406.03-.084.06-.17.115-.41.072-.315.116-.535.147-.728.033-.187.052-.346.075-.53l.02-.014.02-.018c.244-.036.4-.057.56-.082.16-.024.32-.055.574-.103l.008.023.008.022c-.047.195-.094.39-.14.588-.047.197-.094.392-.137.587-.093.414-.13.57-.152.68-.02.105-.026.163-.063.377l-.022.02-.023.017zM19.542 10.728c.143-.633.033-.928-.108-1.11-.213-.273-.59-.36-.978-.36-.235 0-.793.023-1.23.43-.312.29-.458.687-.546 1.066-.088.387-.19 1.086.447 1.344.198.085.48.108.662.108.466 0 .945-.13 1.304-.513.278-.312.405-.775.448-.965zm-1.07-.046c-.02.106-.113.503-.24.673-.086.123-.19.198-.305.198-.033 0-.235 0-.238-.3-.003-.15.027-.304.063-.47.108-.478.236-.88.56-.88.255 0 .27.298.16.78zM29.536 12.187c-.493-.004-.635-.004-1.09.015l-.03-.037c.124-.472.248-.943.358-1.42.142-.62.175-.882.223-1.244l.037-.03c.49-.07.625-.09 1.135-.186l.015.044c-.093.388-.186.777-.275 1.166-.19.816-.258 1.23-.33 1.658l-.044.035z" fill="#FEFEFE" />
  <path d="M29.77 10.784c.144-.63-.432-.056-.525-.264-.14-.323-.052-.98-.62-1.2-.22-.085-.732.025-1.17.428-.31.29-.458.683-.544 1.062-.088.38-.19 1.078.444 1.328.2.085.384.11.567.103.638-.034 1.124-1.002 1.483-1.386.277-.303.326.115.368-.07zm-.974-.047c-.024.1-.117.503-.244.67-.083.117-.283.192-.397.192-.032 0-.232 0-.24-.3 0-.146.03-.3.067-.467.11-.47.235-.87.56-.87.254 0 .363.293.254.774zM22.332 12.144c-.41-.006-.55-.006-1.03.018l-.018-.036c.04-.182.087-.363.13-.548l.057-.25c.09-.39.176-.843.186-.98.008-.084.036-.29-.198-.29-.1 0-.203.048-.308.096-.057.207-.175.79-.232 1.055-.115.558-.124.62-.176.897l-.035.037c-.42-.006-.566-.006-1.05.018l-.022-.04.238-.998c.203-.9.25-1.245.307-1.702l.038-.028c.472-.067.587-.08 1.098-.185l.04.047-.073.287c.084-.052.17-.104.257-.15.24-.12.51-.155.655-.155.224 0 .47.062.575.323.095.232.03.52-.098 1.084l-.065.287c-.133.627-.154.743-.225 1.174l-.05.036zM26.32 8.756c-.07.326-.282.603-.554.736-.225.114-.498.123-.78.123h-.183l.013-.074.336-1.468.01-.076.007-.058.132.015.71.062c.275.105.388.38.31.74zM25.88 7.22l-.34.003c-.883.01-1.238.006-1.383-.012l-.037.182-.315 1.478-.793 3.288c.77-.01 1.088-.01 1.22.004l.21-1.024s.153-.644.163-.667c0 0 .047-.066.096-.092h.07c.665 0 1.417 0 2.005-.437.4-.298.675-.74.797-1.274.03-.132.054-.29.054-.446 0-.205-.04-.41-.16-.568-.3-.423-.896-.43-1.588-.433zM33.572 9.28l-.04-.043c-.502.1-.594.118-1.058.18l-.034.034-.005.023-.003-.007c-.345.803-.334.63-.615 1.26-.003-.03-.003-.048-.004-.077l-.07-1.37-.044-.043c-.53.1-.542.118-1.03.18l-.04.034-.006.056.003.007c.06.315.047.244.108.738.03.244.065.49.093.73.05.4.077.6.134 1.21-.328.55-.408.757-.722 1.238l.017.044c.478-.018.587-.018.94-.018l.08-.088c.265-.578 2.295-4.085 2.295-4.085zM16.318 9.62c.27-.19.304-.45.076-.586-.23-.137-.634-.094-.906.095-.273.186-.304.45-.075.586.228.134.633.094.905-.096z" fill="#FEFEFE" />
  <path d="M31.238 13.415l-.397.684c-.124.232-.357.407-.728.41l-.632-.01.184-.618h.124c.064 0 .11-.004.148-.022.03-.01.054-.035.08-.072l.233-.373h.988z" fill="#FEFEFE" />
</svg>
