<?xml version="1.0" encoding="UTF-8"?>
<svg xmlns="http://www.w3.org/2000/svg" xmlns:xlink="http://www.w3.org/1999/xlink" width="40px" height="24px" viewBox="0 0 40 24" version="1.1">
  <defs>
    <radialGradient id="radial0" gradientUnits="userSpaceOnUse" cx="1.47" cy="18.27" fx="1.47" fy="18.27" r="26.83" gradientTransform="matrix(1.511013,0,0,1.242291,0.00174009,0.660793)">
      <stop offset="0.09" style="stop-color:rgb(0%,57.254902%,27.058824%);stop-opacity:1;"/>
      <stop offset="0.23" style="stop-color:rgb(1.568627%,58.431373%,32.156863%);stop-opacity:0.890196;"/>
      <stop offset="0.52" style="stop-color:rgb(5.098039%,61.960784%,45.490196%);stop-opacity:0.588235;"/>
      <stop offset="0.91" style="stop-color:rgb(10.588235%,67.45098%,67.058824%);stop-opacity:0.121569;"/>
      <stop offset="1" style="stop-color:rgb(12.156863%,69.019608%,72.156863%);stop-opacity:0;"/>
    </radialGradient>
    <radialGradient id="radial1" gradientUnits="userSpaceOnUse" cx="5.89" cy="19.23" fx="5.89" fy="19.23" r="34.42" gradientTransform="matrix(1.511013,0,0,1.321586,0.00174009,0)">
      <stop offset="0.15" style="stop-color:rgb(12.156863%,69.019608%,72.156863%);stop-opacity:0;"/>
      <stop offset="0.35" style="stop-color:rgb(10.980392%,45.490196%,56.862745%);stop-opacity:0.4;"/>
      <stop offset="0.56" style="stop-color:rgb(10.196078%,26.666667%,44.313725%);stop-opacity:0.729412;"/>
      <stop offset="0.74" style="stop-color:rgb(9.411765%,14.901961%,36.862745%);stop-opacity:0.929412;"/>
      <stop offset="0.87" style="stop-color:rgb(9.411765%,10.588235%,34.117647%);stop-opacity:1;"/>
    </radialGradient>
  </defs>
  <g id="surface1">
    <rect x="0" y="0" width="40" height="24" style="fill:rgb(16.078431%,67.058824%,88.627451%);fill-opacity:1;stroke:none;"/>
    <rect x="0" y="0" width="40" height="24" style="fill:url(#radial0);stroke:none;"/>
    <rect x="0" y="0" width="40" height="24" style="fill:url(#radial1);stroke:none;"/>
    <path style=" stroke:none;fill-rule:nonzero;fill:rgb(100%,100%,100%);fill-opacity:1;" d="M 21.746094 5.101562 L 32.429688 5.101562 C 34.488281 5.101562 36.160156 6.5625 36.160156 8.367188 C 36.160156 10.167969 34.488281 11.628906 32.429688 11.628906 L 21.746094 11.628906 Z M 21.746094 12.371094 L 32.429688 12.371094 C 34.488281 12.371094 36.160156 13.832031 36.160156 15.632812 C 36.160156 17.4375 34.488281 18.898438 32.429688 18.898438 L 21.746094 18.898438 Z M 12.4375 12.371094 L 12.4375 11.628906 L 21.035156 11.628906 C 20.585938 7.8125 16.824219 4.957031 12.4375 5.101562 C 7.886719 4.9375 4.042969 8.023438 3.839844 12 C 4.042969 15.976562 7.886719 19.0625 12.4375 18.898438 C 16.824219 19.042969 20.585938 16.1875 21.035156 12.371094 Z M 12.4375 12.371094 "/>
  </g>
</svg>
