<svg width="39" height="45" viewBox="0 0 39 45" fill="none" xmlns="http://www.w3.org/2000/svg">
<g clip-path="url(#clip0)">
<path d="M32.3595 3.50273C30.2832 1.13617 26.53 0.121582 21.7286 0.121582H7.79348C6.81114 0.121582 5.97639 0.836014 5.82259 1.80471L0.0203116 38.6042C-0.0950393 39.3298 0.466832 39.9871 1.20235 39.9871H9.8053L11.966 26.2827L11.899 26.7118C12.0528 25.7431 12.8813 25.0287 13.8624 25.0287H17.9506C25.9817 25.0287 32.2702 21.7666 34.1071 12.3302C34.1617 12.0511 34.2089 11.7795 34.2498 11.514C34.0178 11.3912 34.0178 11.3912 34.2498 11.514C34.7968 8.02623 34.2461 5.65223 32.3595 3.50273Z" fill="#27346A"/>
<path d="M15.2578 10.2576C15.4873 10.1484 15.7428 10.0877 16.0107 10.0877H26.9355C28.2292 10.0877 29.4361 10.172 30.5387 10.3494C30.855 10.4002 31.1614 10.4585 31.459 10.5255C31.7567 10.5912 32.0457 10.6657 32.326 10.7475C32.4662 10.7884 32.6039 10.8306 32.7391 10.8753C33.2811 11.0564 33.7859 11.2672 34.2498 11.514C34.7968 8.02499 34.2461 5.65223 32.3595 3.50273C30.282 1.13617 26.53 0.121582 21.7286 0.121582H7.79224C6.81114 0.121582 5.97639 0.836014 5.82259 1.80471L0.0203125 38.6029C-0.0950385 39.3298 0.466833 39.9859 1.20111 39.9859H9.8053L14.2879 11.5599C14.3797 10.977 14.7542 10.4995 15.2578 10.2576Z" fill="#27346A"/>
<path d="M34.1071 12.3302C32.2702 21.7654 25.9817 25.0287 17.9506 25.0287H13.8612C12.8801 25.0287 12.0515 25.7431 11.899 26.7118L9.21117 43.7515C9.1107 44.3866 9.60187 44.9621 10.2444 44.9621H17.4966C18.3549 44.9621 19.0855 44.337 19.2194 43.4898L19.2901 43.1202L20.657 34.4577L20.745 33.979C20.879 33.1318 21.6095 32.5067 22.4679 32.5067H23.5531C30.5784 32.5067 36.0793 29.6527 37.6867 21.3983C38.3578 17.9489 38.0105 15.0688 36.2355 13.0458C35.6972 12.4331 35.0287 11.9271 34.2498 11.514C34.2076 11.7807 34.1617 12.0511 34.1071 12.3302Z" fill="#2790C3"/>
<path d="M32.3273 10.7475C32.0469 10.6656 31.7579 10.5912 31.4603 10.5255C31.1626 10.4597 30.855 10.4015 30.5399 10.3506C29.436 10.172 28.2304 10.0876 26.9355 10.0876H16.0119C15.7428 10.0876 15.4873 10.1484 15.259 10.2588C14.7542 10.5007 14.3809 10.977 14.2891 11.5612L11.9672 26.2827L11.9002 26.7118C12.0528 25.7431 12.8813 25.0287 13.8624 25.0287H17.9518C25.983 25.0287 32.2714 21.7666 34.1084 12.3302C34.163 12.0511 34.2088 11.7807 34.251 11.514C33.7859 11.2684 33.2823 11.0563 32.7403 10.8765C32.6051 10.8318 32.4674 10.7884 32.3273 10.7475Z" fill="#1F264F"/>
</g>
<defs>
<clipPath id="clip0">
<rect width="38.1457" height="45" fill="white"/>
</clipPath>
</defs>
</svg>
