<svg width="107" height="45" viewBox="0 0 107 45" fill="none" xmlns="http://www.w3.org/2000/svg">
<g clip-path="url(#clip0)">
<path d="M1.5 8.07116C1.5 3.61607 5.09837 0 9.52624 0H96.9738C101.402 0 105 3.61607 105 8.07116V36.9288C105 41.3839 101.413 45 96.9738 45H9.52624C5.09837 45.0118 1.5 41.3957 1.5 36.9406V8.07116Z" fill="#000268"/>
<path d="M3.16937 8.36966V36.6302C3.16937 39.4138 5.45334 41.6666 8.2726 41.6666H54.9154V3.33325H8.2726C5.45334 3.33325 3.16937 5.58607 3.16937 8.36966ZM66.9776 22.3584C66.9776 24.163 66.0854 25.3897 64.5985 25.3897C63.2899 25.3897 62.1955 24.1512 62.1955 22.4999C62.1955 20.8133 63.1591 19.5512 64.5985 19.5512C66.1211 19.563 66.9776 20.8604 66.9776 22.3584ZM58.2462 32.6789H62.1836V26.5456H62.2312C62.9807 27.8902 64.4676 28.3856 65.8356 28.3856C69.2259 28.3856 71.034 25.6138 71.034 22.2758C71.034 19.5394 69.3091 16.5789 66.1568 16.5789C64.3605 16.5789 62.7071 17.2984 61.91 18.8789H61.8625V16.8384H58.2343V32.6789H58.2462ZM76.4108 24.5404C76.4108 23.4553 77.4577 23.0425 78.79 23.0425C79.3847 23.0425 79.9438 23.0779 80.4554 23.1015C80.4554 24.4225 79.5156 25.7671 78.0286 25.7671C77.1127 25.7789 76.4108 25.3307 76.4108 24.5404ZM84.3571 28.1261C84.1787 27.2415 84.143 26.345 84.143 25.4604V21.2497C84.143 17.8056 81.633 16.5671 78.7186 16.5671C77.0413 16.5671 75.5662 16.803 74.1745 17.3691L74.2458 20.0112C75.3402 19.3979 76.6012 19.162 77.874 19.162C79.2896 19.162 80.4554 19.5748 80.4791 21.1199C79.9795 21.0374 79.2777 20.9666 78.6472 20.9666C76.5536 20.9666 72.7708 21.3794 72.7708 24.8235C72.7708 27.2768 74.7811 28.3738 77.0294 28.3738C78.6472 28.3738 79.7416 27.7486 80.6338 26.3333H80.6814C80.6814 26.923 80.7408 27.5009 80.7646 28.1143H84.3571V28.1261ZM86.1177 32.6789C86.9266 32.8558 87.7355 32.9384 88.5682 32.9384C92.1726 32.9384 93.029 30.1784 94.1472 27.3476L98.3226 16.8384H94.3851L92.0417 24.2102H92.006L89.5555 16.8384H85.3207L89.9362 28.3974C89.6507 29.3999 88.9132 29.9543 87.9496 29.9543C87.4024 29.9543 86.9266 29.8835 86.3913 29.7184L86.1177 32.6789Z" fill="white"/>
<path d="M13.7277 23.1917C13.7277 21.7073 14.456 20.4835 15.8673 20.4835C17.563 20.4835 18.2687 21.832 18.2687 23.0444C18.2687 24.7101 17.1989 25.832 15.8673 25.832C14.7292 25.832 13.7277 24.8801 13.7277 23.1917ZM21.9106 17.8546H18.4963V19.815H18.4621C17.6655 18.4778 16.368 17.6053 14.7633 17.6053C11.3718 17.6053 9.84677 20.0189 9.84677 23.2484C9.84677 26.4552 11.7132 28.7101 14.695 28.7101C16.2087 28.7101 17.4606 28.1209 18.3597 26.8518H18.4052V27.441C18.4052 29.56 17.233 30.5798 15.0592 30.5798C13.4887 30.5798 12.5213 30.2512 11.3718 29.6847L11.1783 32.6422C12.0547 32.9594 13.5456 33.3334 15.3438 33.3334C19.7368 33.3334 21.9106 31.8943 21.9106 27.441V17.8546ZM28.2725 13.3334H24.5054V16.0869H28.2725V13.3334ZM24.5054 28.7101H28.2725V17.8546H24.5054V28.7101ZM38.7543 17.73C38.3788 17.6733 37.9121 17.6053 37.4797 17.6053C35.8522 17.6053 34.9076 18.4778 34.2589 19.8603H34.2133V17.866H30.7877V28.7215H34.5548V24.1436C34.5548 22.0133 35.5449 20.7441 37.2976 20.7441C37.7414 20.7441 38.1511 20.7441 38.5722 20.8688L38.7543 17.73ZM45.2415 26.3305C43.5002 26.3305 42.7946 24.8914 42.7946 23.2937C42.7946 21.6733 43.5002 20.2342 45.2415 20.2342C46.9827 20.2342 47.6884 21.6733 47.6884 23.2937C47.6884 24.8914 46.9714 26.3305 45.2415 26.3305ZM45.2415 28.9594C48.8378 28.9594 51.5806 26.8745 51.5806 23.2937C51.5806 19.6903 48.8378 17.6053 45.2415 17.6053C41.6451 17.6053 38.9023 19.6903 38.9023 23.2937C38.9023 26.8745 41.6337 28.9594 45.2415 28.9594Z" fill="#FF0007"/>
</g>
<defs>
<clipPath id="clip0">
<rect width="106.5" height="45" fill="white"/>
</clipPath>
</defs>
</svg>
