<svg width="140" height="45" viewBox="0 0 140 45" fill="none" xmlns="http://www.w3.org/2000/svg">
<g clip-path="url(#clip0)">
<path fill-rule="evenodd" clip-rule="evenodd" d="M29.461 25.8968L40.4792 25.8827L40.0776 28.3858L30.8629 37.1679L38.5982 37.1538L38.1473 39.8538L26.7558 39.8608L27.2348 37.0694L36.0691 28.6249H29.0172L29.461 25.8968Z" fill="#D13239"/>
<path fill-rule="evenodd" clip-rule="evenodd" d="M17.4073 21.6148C17.1678 21.3617 16.8226 21.1648 16.4421 21.0101C16.0266 20.8551 15.5973 20.7397 15.16 20.6656C14.6756 20.5809 14.186 20.5292 13.6946 20.5109C13.3424 20.4968 13.117 20.4968 13.117 20.4968H4.71245L1.5 39.8609H4.50111L5.68464 32.689L11.5037 32.7171C11.5037 32.7171 13.7721 32.8085 15.3784 31.9578C16.9846 31.107 17.4143 29.1734 17.4143 29.1734C17.4143 29.1734 17.5905 28.4562 17.7384 27.5843C17.9004 26.621 18.0625 25.4679 18.147 24.8562C18.1822 24.589 18.2034 24.4203 18.2034 24.4203C18.2336 24.2532 18.2477 24.0837 18.2456 23.914C18.2609 23.3249 18.1251 22.7416 17.8511 22.2195C17.7312 21.9988 17.5819 21.7954 17.4073 21.6148ZM15.0966 25.032C15.0966 25.0671 14.8289 26.621 14.4766 28.4632C14.3428 29.1664 13.8003 29.546 13.1804 29.6796C12.1518 29.8976 11.0458 29.8554 11.0458 29.8554L6.18483 29.8414L7.25565 23.4078L11.6587 23.4218C11.6587 23.4218 11.9546 23.4148 12.3702 23.4218C12.9094 23.4244 13.448 23.4572 13.9835 23.5203C14.4273 23.5765 14.7796 23.6679 14.8923 23.8085C15.0265 23.9936 15.1047 24.2133 15.1177 24.4414C15.1328 24.6384 15.1258 24.8365 15.0966 25.032Z" fill="#D13239"/>
<path fill-rule="evenodd" clip-rule="evenodd" d="M55.4213 20.4968H58.3097L55.0761 39.8609L52.1807 39.8539L55.4213 20.4968Z" fill="#D13239"/>
<path fill-rule="evenodd" clip-rule="evenodd" d="M70.8354 25.8968L73.6041 25.8898L74.5833 35.7195L78.8455 25.8757L82.2622 25.8828L83.2696 35.7546L87.5247 25.8898H90.399L84.2982 39.8468H80.8885L79.9022 30.0734L75.5978 39.8468L72.2444 39.8609L70.8354 25.8968Z" fill="#D13239"/>
<path d="M50.0884 26.0093C49.2782 25.7491 47.8763 25.6929 46.6857 25.7069C45.5374 25.721 45.009 25.7773 44.5793 25.8687C44.5793 25.8687 42.5363 26.164 41.3739 27.5984C40.2115 29.0327 39.8663 32.1687 39.8663 32.1687C39.8663 32.1687 39.1759 35.6351 39.3802 36.7952C39.5845 37.9554 39.9438 39.0241 41.2541 39.5234C42.0268 39.826 42.8476 39.988 43.6776 40.0015C43.6776 40.0015 46.0165 40.1843 47.7777 39.7695C48.8294 39.5217 49.7731 38.9423 50.4688 38.1171C50.7438 37.7523 50.9821 37.3613 51.1803 36.9499C51.3546 36.5881 51.4892 36.2085 51.5819 35.8179L51.7651 35.0655L48.771 35.0726C48.771 35.0726 48.609 37.0484 46.9887 37.2312C45.3683 37.414 44.5089 37.3437 44.1918 37.3296C43.8748 37.3155 42.1488 37.3929 42.2897 35.9445C42.2893 35.9138 42.2917 35.8832 42.2968 35.853C42.3743 34.2077 42.5574 33.7788 42.5574 33.7788L51.9623 33.7507L52.3639 31.4304C52.8288 28.8007 52.4977 26.7968 50.0884 26.0093ZM49.4614 31.0999L43.0154 31.0929L43.269 30.0734C43.269 30.0734 43.4944 29.2718 43.9382 28.9343C44.3821 28.5968 44.9597 28.5335 45.4951 28.4843C46.0306 28.4351 47.4607 28.3296 48.6231 28.5687C49.0105 28.646 49.3769 28.864 49.4755 29.1874C49.7009 29.9468 49.4614 31.0999 49.4614 31.0999Z" fill="#D13239"/>
<path d="M42.3559 35.8813C42.3559 35.9129 42.3408 35.9445 42.3408 35.976C42.3258 36.1445 42.3559 35.8707 42.3559 35.8813Z" fill="#D13239"/>
<path d="M60.0937 35.8882C60.0937 35.9198 60.0787 35.9514 60.0787 35.983C60.0787 36.1515 60.0937 35.8777 60.0937 35.8882Z" fill="#D13239"/>
<path d="M67.8344 26.0163C67.0242 25.7561 65.6223 25.6998 64.4317 25.7139C63.2834 25.728 62.755 25.7842 62.3253 25.8756C62.3253 25.8756 60.2823 26.1709 59.1199 27.6053C57.9575 29.0397 57.6123 32.1756 57.6123 32.1756C57.6123 32.1756 56.9219 35.642 57.1262 36.8022C57.3305 37.9623 57.6898 39.0311 59.0001 39.5303C59.7728 39.833 60.5936 39.9949 61.4235 40.0084C61.4235 40.0084 63.7624 40.1912 65.5236 39.7764C66.5753 39.5287 67.519 38.9493 68.2148 38.1241C68.4897 37.7592 68.7281 37.3683 68.9263 36.9569C69.1006 36.595 69.2352 36.2155 69.3279 35.8248L69.511 35.0725L66.517 35.0795C66.517 35.0795 66.3549 37.0553 64.7346 37.2381C63.8071 37.3533 62.8714 37.3886 61.9378 37.3436C61.6278 37.3295 59.8948 37.3998 60.0357 35.9584C60.0353 35.9278 60.0376 35.8972 60.0427 35.867C60.1202 34.2217 60.3034 33.7928 60.3034 33.7928L69.7083 33.7647L70.1098 31.4444C70.5748 28.8077 70.2437 26.7967 67.8344 26.0163ZM67.1792 31.0998L60.7331 31.0928L60.9868 30.0733C60.9868 30.0733 61.2122 29.2717 61.656 28.9342C62.0998 28.5967 62.6775 28.5334 63.2129 28.4842C63.7483 28.435 65.1784 28.3295 66.3408 28.5686C66.7283 28.6459 67.0946 28.8639 67.1933 29.1873C67.4187 29.9397 67.1792 31.0998 67.1792 31.0998Z" fill="#D13239"/>
<path fill-rule="evenodd" clip-rule="evenodd" d="M93.7242 25.8967L95.577 36.1061L100.811 25.8896L103.756 25.9178L96.211 40.5076C96.211 40.5076 94.8443 43.1514 93.999 43.8193C93.1536 44.4873 92.6323 44.7896 91.9419 44.86C91.2515 44.9303 90.9697 44.9795 90.3075 44.86L89.603 44.7334L90.0397 42.1248C90.0397 42.1248 91.2092 42.3428 91.8996 42.0686C92.59 41.7943 93.1536 40.6131 93.1536 40.6131L93.5058 40.0225L90.7795 25.8896L93.7242 25.8967V25.8967Z" fill="#D13239"/>
<path fill-rule="evenodd" clip-rule="evenodd" d="M104.827 27.2819L107.863 27.2889L108.046 26.1147C108.046 26.1147 108.37 23.9913 109.096 23.5835C109.329 23.4499 109.702 23.3303 110.132 23.253C110.928 23.1124 111.935 23.0983 112.759 23.1264C114.02 23.1686 114.499 23.1827 115.782 23.3303C117.064 23.478 116.74 24.7155 116.74 24.7155L116.486 26.5647C116.486 26.5647 116.373 27.3944 116.077 27.9077C115.817 28.3647 115.098 28.6741 114.683 28.8077C113.682 29.1311 110.258 30.003 110.258 30.003L107.567 30.7764C107.567 30.7764 105.912 31.2545 104.989 32.2741C104.281 33.0666 103.791 34.0282 103.566 35.0655C103.439 35.6702 102.728 39.8538 102.728 39.8538L117.254 39.8608L117.74 36.9639L106.25 36.978L106.454 35.7967C106.454 35.7967 106.588 34.5803 107.081 34.1795C107.236 34.053 107.314 33.8842 108.23 33.5608C108.779 33.3639 110.653 32.8647 110.653 32.8647L114.986 31.6835C114.986 31.6835 117.353 31.0788 118.283 29.785C119.212 28.4913 119.572 26.0303 119.572 26.0303C119.572 26.0303 119.825 23.6327 119.628 22.8803C119.431 22.128 118.726 21.228 117.86 20.8413C116.993 20.4545 116.092 20.2295 113.478 20.2647C110.864 20.2999 109.568 20.4194 108.244 20.9116C106.919 21.4038 106.151 22.2827 105.665 23.5342C105.137 24.7225 104.827 27.2819 104.827 27.2819Z" fill="#B3B2B1"/>
<path fill-rule="evenodd" clip-rule="evenodd" d="M132.175 32.6679L134.211 20.4897H130.604L119.375 32.5272L118.867 35.5788H128.688L127.969 39.8538L130.984 39.8608L131.696 35.5788L134.479 35.5858L134.979 32.6679H132.175ZM129.174 32.6749L122.827 32.6679L130.555 24.4483L129.174 32.6749Z" fill="#B3B2B1"/>
<path fill-rule="evenodd" clip-rule="evenodd" d="M23.7758 22.0929H33.0257C33.0257 22.0929 35.0969 20.4195 36.5693 19.3437C38.0416 18.2679 40.7187 16.5734 40.7187 16.5734L35.4914 14.1335C35.4914 14.1335 31.0743 16.8617 29.2004 18.1484C27.3828 19.3367 23.7758 22.0929 23.7758 22.0929Z" fill="#B3B2B1"/>
<path fill-rule="evenodd" clip-rule="evenodd" d="M43.6564 14.8506L39.3661 11.9678C42.2908 10.3655 45.3117 8.94484 48.4117 7.71392C53.5685 5.66079 56.3231 4.80298 56.3231 4.80298L57.1966 8.88814C57.1966 8.88814 52.23 10.5475 49.3839 11.8905C46.4391 13.142 43.6564 14.8506 43.6564 14.8506Z" fill="#B3B2B1"/>
<path fill-rule="evenodd" clip-rule="evenodd" d="M60.3668 7.99526L59.6201 3.81167C59.6201 3.81167 64.9178 2.40542 69.7646 1.50542C74.6115 0.60542 81.0505 0.176514 81.0505 0.176514L78.923 6.63823C78.923 6.63823 73.2659 5.8648 67.9541 6.58901C65.398 6.89893 62.864 7.3686 60.3668 7.99526Z" fill="#B3B2B1"/>
<path fill-rule="evenodd" clip-rule="evenodd" d="M82.2904 7.18658L85.8692 0.0076736C85.8692 0.0076736 93.7101 -0.147014 100.473 0.900642C107.236 1.9483 113.422 3.54439 113.288 3.6147L96.1406 12.5655C96.1406 12.5655 92.1321 10.0342 87.1584 8.48033C84.3405 7.65064 82.2904 7.18658 82.2904 7.18658Z" fill="#B3B2B1"/>
<path fill-rule="evenodd" clip-rule="evenodd" d="M99.2121 14.5131L102.981 17.3678H133.957C133.957 17.3678 133.894 16.3694 133.07 14.9491C132.555 14.0631 131.618 13.1209 130.639 12.1436C130.28 11.792 128.857 10.6811 127.786 9.98501C125.053 8.21313 123.524 7.5311 120.685 6.24438L99.2121 14.5131Z" fill="#B3B2B1"/>
<path d="M25.7836 25.8827C24.6212 25.8827 23.5222 26.3397 22.5852 26.853L22.7473 25.8827H19.6687L17.203 39.7835H20.2886L21.6553 32.0843C21.9371 30.5233 23.1066 28.5897 25.3891 28.5897L26.9812 28.5827L27.4603 25.8827H25.7836Z" fill="#D13239"/>
</g>
<defs>
<clipPath id="clip0">
<rect width="139.5" height="45" fill="white"/>
</clipPath>
</defs>
</svg>
