<svg xmlns="http://www.w3.org/2000/svg" width="116" height="21" viewBox="0 0 116 21" fill="none">
  <path d="M45.2727 4.80059V17.2678H41.2909V15.5113C41.1364 15.8101 40.9273 16.0817 40.6636 16.3262C40.4 16.5706 40.1091 16.7879 39.7636 16.969C39.4273 17.1501 39.0636 17.2949 38.6545 17.4126C38.2545 17.5303 37.8636 17.5847 37.4545 17.5847C36.5545 17.5847 35.7273 17.4126 34.9727 17.0776C34.2182 16.7426 33.5727 16.29 33.0364 15.7014C32.5 15.122 32.0909 14.4339 31.7909 13.6281C31.4909 12.8223 31.3455 11.9622 31.3455 11.0297C31.3455 10.0971 31.4909 9.22793 31.7909 8.43119C32.0909 7.6254 32.5091 6.94636 33.0364 6.35785C33.5727 5.77841 34.2182 5.32571 34.9727 4.98167C35.7273 4.63762 36.5545 4.47465 37.4545 4.47465C37.8545 4.47465 38.2455 4.52897 38.6545 4.64667C39.0546 4.76437 39.4182 4.90924 39.7636 5.09937C40.1 5.2895 40.4 5.51585 40.6636 5.76935C40.9273 6.03192 41.1273 6.30353 41.2909 6.57515V4.80059H45.2727ZM38.3091 14.2257C38.7636 14.2257 39.1636 14.1351 39.5273 13.9631C39.8909 13.7911 40.2 13.5647 40.4636 13.275C40.7273 12.9943 40.9273 12.6503 41.0727 12.261C41.2182 11.8717 41.2909 11.4552 41.2909 11.0297C41.2909 10.6041 41.2091 10.1876 41.0727 9.81643C40.9273 9.44522 40.7182 9.10118 40.4636 8.8024C40.2 8.50362 39.8909 8.26822 39.5273 8.10525C39.1636 7.93323 38.7636 7.84269 38.3091 7.84269C37.8545 7.84269 37.4545 7.93323 37.0909 8.10525C36.7273 8.27728 36.4182 8.50362 36.1545 8.8024C35.8909 9.10118 35.6909 9.43617 35.5455 9.81643C35.4 10.1876 35.3273 10.6041 35.3273 11.0297C35.3273 11.4552 35.4091 11.8717 35.5455 12.261C35.6909 12.6503 35.9 12.9853 36.1545 13.275C36.4182 13.5557 36.7273 13.7911 37.0909 13.9631C37.4455 14.1351 37.8636 14.2257 38.3091 14.2257ZM60.3909 11.9984C60.4 12.3696 60.4727 12.7408 60.5636 13.0758C60.6545 13.4108 60.8091 13.7096 61.0273 13.9541C61.2455 14.1985 61.5182 14.4067 61.8727 14.5516C62.2273 14.6965 62.6545 14.7689 63.1727 14.7689C63.8636 14.7689 64.3909 14.624 64.7455 14.3524C65.1 14.0808 65.3455 13.7458 65.4909 13.3384H69.3909C69.3 13.9178 69.1091 14.4792 68.7818 14.9952C68.4545 15.5113 68.0364 15.964 67.5091 16.3533C66.9727 16.7426 66.3545 17.0505 65.6364 17.2768C64.9182 17.4941 64.1 17.6118 63.2091 17.6118C62.1182 17.6118 61.1545 17.4579 60.3091 17.132C59.4636 16.806 58.7636 16.3533 58.1909 15.7739C57.6182 15.1944 57.1909 14.4882 56.8909 13.6915C56.5909 12.8857 56.4455 12.0075 56.4455 11.0387C56.4455 10.1152 56.5909 9.26415 56.8727 8.47646C57.1545 7.68877 57.5909 6.99163 58.1455 6.39407C58.7 5.79651 59.4091 5.33477 60.2273 4.98167C61.0455 4.62857 62.0091 4.4656 63.1 4.4656C64.0909 4.4656 64.9727 4.61951 65.7636 4.92734C66.5546 5.23518 67.2364 5.65165 67.7909 6.16772C68.3455 6.68379 68.7909 7.2904 69.0909 7.9785C69.3909 8.66659 69.5455 9.3909 69.5455 10.1514C69.5455 10.414 69.5455 10.6856 69.5364 10.9844C69.5273 11.2832 69.4818 11.6182 69.4182 11.9984H60.3909ZM63.0727 7.10027C62.2909 7.10027 61.6545 7.31757 61.1455 7.77026C60.6364 8.22295 60.3909 8.87483 60.3909 9.70779H65.6455C65.6455 8.89294 65.4091 8.25917 64.9273 7.78837C64.4455 7.33567 63.8273 7.10027 63.0727 7.10027ZM99.9636 4.9364V17.4036H95.9818V15.6471C95.8273 15.9459 95.6182 16.2175 95.3545 16.462C95.0909 16.7064 94.8 16.9237 94.4545 17.1048C94.1182 17.2859 93.7546 17.4307 93.3455 17.5484C92.9455 17.6661 92.5546 17.7205 92.1455 17.7205C91.2455 17.7205 90.4182 17.5484 89.6636 17.2134C88.9091 16.8785 88.2636 16.4258 87.7273 15.8373C87.1909 15.2578 86.7818 14.5697 86.4818 13.7639C86.1818 12.9581 86.0364 12.098 86.0364 11.1655C86.0364 10.2329 86.1818 9.36374 86.4818 8.567C86.7818 7.7612 87.2 7.08216 87.7273 6.49366C88.2636 5.91422 88.9091 5.46152 89.6636 5.11747C90.4182 4.78248 91.2455 4.61046 92.1455 4.61046C92.5455 4.61046 92.9364 4.66478 93.3455 4.78248C93.7455 4.90018 94.1091 5.04504 94.4545 5.23517C94.7909 5.42531 95.0909 5.65165 95.3545 5.90516C95.6182 6.16772 95.8182 6.43934 95.9818 6.71096V4.92734H99.9636V4.9364ZM93.0091 14.3524C93.4636 14.3524 93.8636 14.2619 94.2273 14.0899C94.5909 13.9178 94.9 13.6915 95.1636 13.4018C95.4273 13.112 95.6273 12.7771 95.7727 12.3877C95.9182 11.9984 95.9909 11.5819 95.9909 11.1564C95.9909 10.7309 95.9091 10.3144 95.7727 9.94319C95.6364 9.57198 95.4182 9.22793 95.1636 8.92915C94.9 8.63038 94.5909 8.39498 94.2273 8.23201C93.8636 8.05998 93.4636 7.96944 93.0091 7.96944C92.5545 7.96944 92.1545 8.05998 91.7909 8.23201C91.4273 8.40403 91.1182 8.63038 90.8545 8.92915C90.5909 9.22793 90.3909 9.56293 90.2455 9.94319C90.1 10.3144 90.0273 10.7309 90.0273 11.1564C90.0273 11.5819 90.1091 11.9984 90.2455 12.3877C90.3909 12.7771 90.6 13.112 90.8545 13.4018C91.1182 13.6824 91.4273 13.9178 91.7909 14.0899C92.1455 14.2619 92.5545 14.3524 93.0091 14.3524ZM108.345 20.5H103.691L105.927 16.0093L100.9 4.9364H105.809L108.264 11.5276L111.345 4.9364H116L108.345 20.5ZM54.5182 14.3162C54.2727 14.3162 54.0545 14.289 53.8455 14.2347C53.6364 14.1804 53.4545 14.0808 53.3 13.9359C53.1455 13.7911 53.0273 13.5738 52.9364 13.3022C52.8455 13.0306 52.8091 12.6593 52.8091 12.1885V7.75215H55.1273L56.6455 4.80059H52.8091V0.5L48.8455 2.61861V4.79154H46.8727V7.7431H48.8455V13.0758C48.8455 14.108 48.9909 14.9228 49.2727 15.5204C49.5545 16.1179 49.9182 16.5525 50.3636 16.8422C50.8091 17.1229 51.2909 17.304 51.8091 17.3764C52.3273 17.4398 52.8273 17.476 53.2909 17.476C53.8727 17.476 54.4 17.4488 54.8364 17.4126C55.2818 17.3764 55.6455 17.3221 55.9455 17.2678V14.2347C55.7546 14.2709 55.5273 14.2981 55.2727 14.2981C55.0091 14.3162 54.7636 14.3162 54.5182 14.3162ZM31.3818 4.78248C31.0727 4.66478 30.6909 4.59235 30.2545 4.59235C29.3727 4.59235 28.5909 4.80964 27.9 5.26234C27.2091 5.71503 26.7273 6.2311 26.4273 6.8196V4.80059H22.4455V17.2678H26.4273V12.3968C26.4273 10.8848 26.7545 9.80738 27.4182 9.16456C27.9909 8.62132 28.7182 8.29538 29.6 8.23201L31.3818 4.78248ZM11.9818 3.84088C10.6909 3.08035 9.2 2.63671 7.6 2.64577C4.19091 2.68198 1.28182 4.72816 0 7.6435L4.2 11.7449L11.9818 3.84088ZM15.3818 7.6435L4.42727 18.7798C5.45455 19.2053 6.58182 19.4407 7.76364 19.4407C12.4182 19.3864 16.1455 15.6109 16.1091 10.9753C16.0909 9.78022 15.8364 8.65754 15.3818 7.6435ZM75.0818 6.5842C75.2364 6.31258 75.4455 6.04097 75.7091 5.77841C75.9727 5.51584 76.2636 5.29855 76.6182 5.10842C76.9727 4.91829 77.3364 4.77343 77.7273 4.65573C78.1182 4.53803 78.5182 4.4837 78.9364 4.4837C79.8364 4.4837 80.6636 4.65573 81.4182 4.99072C82.1727 5.32571 82.8182 5.77841 83.3545 6.36691C83.8909 6.94636 84.3 7.63445 84.6 8.44025C84.9 9.24604 85.0455 10.1062 85.0455 11.0387C85.0455 11.9713 84.9 12.8404 84.6 13.6372C84.3 14.443 83.8818 15.122 83.3545 15.7105C82.8273 16.299 82.1727 16.7426 81.4182 17.0867C80.6636 17.4217 79.8364 17.5937 78.9364 17.5937C78.5182 17.5937 78.1182 17.5394 77.7273 17.4217C77.3364 17.304 76.9727 17.1591 76.6182 16.969C76.2636 16.7789 75.9727 16.5525 75.7091 16.3081C75.4455 16.0636 75.2455 15.792 75.0818 15.4932V20.5H71.1V4.80059H75.0818V6.5842ZM78.1 7.85174C77.6455 7.85174 77.2455 7.94228 76.8636 8.11431C76.4818 8.28633 76.1727 8.51268 75.9182 8.8024C75.6545 9.08307 75.4546 9.42712 75.3091 9.81643C75.1636 10.2057 75.0909 10.6222 75.0909 11.0478C75.0909 11.4733 75.1727 11.8898 75.3091 12.2791C75.4546 12.6684 75.6636 13.0034 75.9182 13.2931C76.1818 13.5738 76.4909 13.8092 76.8636 13.9812C77.2364 14.1532 77.6455 14.2438 78.1 14.2438C78.5273 14.2438 78.9364 14.1532 79.3 13.9812C79.6636 13.8092 79.9727 13.5828 80.2364 13.2931C80.5 13.0125 80.7 12.6684 80.8455 12.2791C80.9909 11.8898 81.0636 11.4733 81.0636 11.0478C81.0636 10.6222 80.9818 10.2057 80.8455 9.81643C80.7 9.42712 80.4909 9.09212 80.2364 8.8024C79.9727 8.52173 79.6636 8.28633 79.3 8.11431C78.9273 7.94228 78.5364 7.85174 78.1 7.85174Z" fill="url(#paint0_linear_800_2779)"/>
  <defs>
    <linearGradient id="paint0_linear_800_2779" x1="178.697" y1="-33.25" x2="-3.66911" y2="29.6882" gradientUnits="userSpaceOnUse">
      <stop stop-color="#0A0082"/>
      <stop offset="1" stop-color="#E4003E"/>
    </linearGradient>
  </defs>
</svg>