<?xml version="1.0" encoding="UTF-8"?>
<svg version="1.1" xmlns="http://www.w3.org/2000/svg" width="1400" height="265">
<path d="M0 0 C3.08761004 2.91900335 5.85795763 5.94681107 8.375 9.375 C8.375 10.035 8.375 10.695 8.375 11.375 C13.47781209 8.63240332 18.39025415 5.7172902 23.25 2.5625 C49.72639996 -13.78057535 81.85560456 -18.98081188 112.375 -13.625 C124.81263053 -10.6650147 136.39259784 -4.66313737 143.25390625 6.40625 C153.02426893 24.51915617 152.55083554 43.72283063 150.22314453 63.66015625 C150.09404757 64.76741058 149.9649506 65.87466492 149.8319416 67.01547241 C147.93059933 82.69164897 145.36015766 98.27151676 142.85359335 113.85982132 C142.13235684 118.35184059 141.4170942 122.8448118 140.70095825 127.33764648 C139.50289806 134.84827669 138.30049439 142.35820093 137.09521484 149.86767578 C135.70204351 158.54806435 134.31528078 167.22945838 132.93194187 175.91141891 C131.59439068 184.30544639 130.25307866 192.69886826 128.90979385 201.09197998 C128.34012127 204.65157631 127.7716524 208.21136179 127.20412827 211.77130127 C126.53906362 215.94169285 125.8706774 220.11153865 125.19966507 224.28097725 C124.95381833 225.81190353 124.70910637 227.34301253 124.46559143 228.87431145 C124.13416893 230.95716006 123.79869296 233.03931508 123.46212769 235.12133789 C123.18175565 236.87094566 123.18175565 236.87094566 122.89571953 238.65589905 C122.375 241.375 122.375 241.375 121.375 243.375 C92.335 243.375 63.295 243.375 33.375 243.375 C34.49988308 231.00128612 34.49988308 231.00128612 35.40638733 225.33120728 C35.60970169 224.04750748 35.81301605 222.76380768 36.02249146 221.44120789 C36.24549219 220.05666273 36.46854694 218.67212627 36.69165039 217.28759766 C36.92858877 215.79975209 37.16517644 214.31185064 37.40144348 212.82389832 C37.90751803 209.64040277 38.41568785 206.45725154 38.92543221 203.27434158 C39.73291156 198.22995143 40.53341414 193.18446912 41.33262634 188.13876343 C43.60506519 173.79782648 45.88391756 159.45792435 48.17602539 145.12011719 C49.44442556 137.18552341 50.70557821 129.24981198 51.95887941 121.31281888 C52.74953434 116.30825252 53.54887291 111.30517936 54.35484898 106.30305886 C54.85623337 103.17757579 55.34909257 100.05079103 55.83965874 96.92359352 C56.06673213 95.48685724 56.29717207 94.05064779 56.53144836 92.61506844 C59.22159812 77.56279399 59.22159812 77.56279399 57.125 62.6875 C55.20240243 60.14692464 54.31386421 59.48633521 51.375 58.375 C40.23162442 57.21056464 30.1867085 58.94045624 20.12890625 64.01171875 C17.375 65.375 17.375 65.375 15.375 65.375 C15.22233673 66.54818787 15.06967346 67.72137573 14.91238403 68.93011475 C12.62756668 86.20671927 9.94233497 103.41912251 7.25745153 120.63688374 C6.72969784 124.02269071 6.20317773 127.40868911 5.67661393 130.79468131 C4.4362467 138.77032409 3.1936716 146.7456207 1.94970703 154.72070312 C0.66767865 162.94010489 -0.61028515 171.16013174 -1.8863765 179.38045716 C-2.98721856 186.47084591 -4.09063956 193.56083005 -5.19613159 200.65049529 C-5.8543624 204.8720303 -6.51158239 209.09371645 -7.16626358 213.31580353 C-7.77891164 217.26614306 -8.39476291 221.21596973 -9.01313782 225.16541672 C-9.23965463 226.61571363 -9.46501657 228.06619144 -9.68915939 229.51685715 C-9.99427794 231.49041781 -10.30390985 233.46327915 -10.61380005 235.43609619 C-10.78596605 236.54132755 -10.95813206 237.64655891 -11.13551521 238.78528214 C-11.625 241.375 -11.625 241.375 -12.625 243.375 C-41.665 243.375 -70.705 243.375 -100.625 243.375 C-99.50000516 229.87506197 -99.50000516 229.87506197 -98.63830566 224.43632507 C-98.44485062 223.20147873 -98.25139557 221.96663239 -98.05207825 220.69436646 C-97.84013875 219.37004313 -97.62811513 218.04573326 -97.41601562 216.72143555 C-97.19051679 215.29267705 -96.96540503 213.86385742 -96.74064636 212.4349823 C-96.13502398 208.59175013 -95.52409279 204.7493793 -94.9121685 200.90714622 C-94.27014446 196.86974187 -93.63320568 192.83153539 -92.99572754 188.79341125 C-91.78917656 181.15529363 -90.57828607 173.51787092 -89.36572313 165.88070565 C-87.71939647 155.51022657 -86.07918764 145.13878038 -84.43884945 134.7673527 C-84.04401011 132.27090882 -83.64914939 129.77446833 -83.25427246 127.2780304 C-83.12620067 126.46832804 -82.99812888 125.65862568 -82.86617613 124.82438689 C-82.10730889 120.02753486 -81.34737995 115.23085252 -80.58644867 110.43432748 C-80.11306236 107.45020633 -79.64004259 104.46602713 -79.1670475 101.48184395 C-78.94835244 100.10278174 -78.72946985 98.72374926 -78.5103817 97.34474945 C-78.21034073 95.45616116 -77.91100236 93.5674613 -77.61169434 91.67875671 C-77.44430504 90.62414088 -77.27691574 89.56952505 -77.10445404 88.48295116 C-74.46489801 74.14256168 -74.46489801 74.14256168 -77.625 60.375 C-85.57199351 56.20608537 -96.22204288 57.64568023 -104.5 60.1875 C-106.54794634 60.89883859 -108.59015309 61.6270128 -110.625 62.375 C-112.39425257 62.96311038 -114.16490559 63.5470402 -115.9375 64.125 C-117.154375 64.5375 -118.37125 64.95 -119.625 65.375 C-119.68977114 66.3854859 -119.68977114 66.3854859 -119.75585079 67.41638565 C-120.40703809 76.3516235 -121.72183767 85.13659263 -123.12524414 93.97558594 C-123.3819153 95.61274529 -123.6382064 97.24996426 -123.89414978 98.88723755 C-124.58444197 103.29608745 -125.27999462 107.70409255 -125.97655034 112.1119566 C-126.70568169 116.73188646 -127.42989515 121.35258716 -128.15464783 125.97320557 C-129.5253052 134.70692822 -130.90033468 143.43995655 -132.27696651 152.17273927 C-134.13873197 163.98466983 -135.99368047 175.79767074 -137.84902668 187.61061096 C-140.76880777 206.19961601 -143.69764137 224.78718307 -146.625 243.375 C-175.995 243.375 -205.365 243.375 -235.625 243.375 C-234.99694918 235.83839015 -234.30685723 228.53501209 -233.11354065 221.10223389 C-232.96300592 220.14207406 -232.81247119 219.18191424 -232.6573748 218.19265866 C-232.15796106 215.01416529 -231.65236949 211.83668787 -231.14672852 208.65917969 C-230.7849341 206.36505787 -230.42351429 204.07087695 -230.06243896 201.77664185 C-229.08504651 195.57388773 -228.10217428 189.3720136 -227.11809278 183.17031765 C-226.08731297 176.66957841 -225.06094867 170.16814184 -224.03392029 163.66680908 C-222.19934349 152.05726321 -220.36013865 140.44845479 -218.51931041 128.83989874 C-216.85210122 118.32550365 -215.18902756 107.81046144 -213.52905273 97.29492188 C-211.39167556 83.75518117 -209.25065016 70.21602307 -207.10655022 56.67734528 C-206.28908358 51.51507406 -205.47303947 46.35258095 -204.658144 41.18990326 C-203.69862755 35.11217305 -202.73556518 29.03501504 -201.76977539 22.95827866 C-201.41621815 20.73004691 -201.06387497 18.50162214 -200.71284294 16.27299118 C-200.23302842 13.22806704 -199.74879128 10.1838778 -199.26344299 7.13983154 C-199.12598571 6.26083781 -198.98852842 5.38184408 -198.84690577 4.47621417 C-198.71465473 3.6525716 -198.5824037 2.82892904 -198.44614506 1.98032761 C-198.2795015 0.92838687 -198.2795015 0.92838687 -198.10949141 -0.14480519 C-197.42117287 -3.66842611 -196.49575649 -7.14197403 -195.625 -10.625 C-170.545 -10.625 -145.465 -10.625 -119.625 -10.625 C-118.635 -4.355 -117.645 1.915 -116.625 8.375 C-113.985 6.704375 -111.345 5.03375 -108.625 3.3125 C-77.4540994 -15.92767524 -30.41692618 -26.83846428 0 0 Z " fill="#008CFF" transform="translate(984.625,15.625)"/>
<path d="M0 0 C12.89384946 13.92641646 14.5659668 32.4268533 13.90620041 50.48048401 C13.65770083 55.28423866 13.15841506 60.04395235 12.59814453 64.8203125 C12.46904757 65.92502899 12.3399506 67.02974548 12.2069416 68.16793823 C10.30269313 83.83444092 7.73369253 99.40562838 5.22859335 114.98482132 C4.50735684 119.47684059 3.7920942 123.9698118 3.07595825 128.46264648 C1.87789806 135.97327669 0.67549439 143.48320093 -0.52978516 150.99267578 C-1.92295649 159.67306435 -3.30971922 168.35445838 -4.69305813 177.03641891 C-6.03060932 185.43044639 -7.37192134 193.82386826 -8.71520615 202.21697998 C-9.28487873 205.77657631 -9.8533476 209.33636179 -10.42087173 212.89630127 C-11.08593638 217.06669285 -11.7543226 221.23653865 -12.42533493 225.40597725 C-12.67118167 226.93690353 -12.91589363 228.46801253 -13.15940857 229.99931145 C-13.49083107 232.08216006 -13.82630704 234.16431508 -14.16287231 236.24633789 C-14.34978701 237.41274307 -14.5367017 238.57914825 -14.72928047 239.78089905 C-15.25 242.5 -15.25 242.5 -16.25 244.5 C-45.29 244.5 -74.33 244.5 -104.25 244.5 C-103.12500622 232.12506845 -103.12500622 232.12506845 -102.26330566 226.68157959 C-102.06985062 225.44810791 -101.87639557 224.21463623 -101.67707825 222.94378662 C-101.46512405 221.61583408 -101.25310092 220.28789255 -101.04101562 218.95996094 C-100.81558304 217.53133949 -100.59046911 216.10266774 -100.36564636 214.6739502 C-99.75933622 210.82663839 -99.14865442 206.98003223 -98.5371685 203.13354015 C-97.89570583 199.09337177 -97.25843542 195.05254222 -96.62072754 191.01177979 C-95.41355756 183.36664495 -94.20283008 175.72207818 -92.99072313 168.0777247 C-91.21217553 156.85991953 -89.43922409 145.64122965 -87.666008 134.42258072 C-87.40376592 132.76351117 -87.14152076 131.1044421 -86.87927246 129.44537354 C-86.75120067 128.63511915 -86.62312888 127.82486477 -86.49117613 126.99005723 C-85.73219052 122.18904333 -84.97225802 117.3881805 -84.21144867 112.58745527 C-83.73804954 109.60005797 -83.26502745 106.61260103 -82.7920475 103.62513733 C-82.57334937 102.24446394 -82.35446668 100.86381976 -82.1353817 99.4832077 C-81.83534279 97.59237596 -81.53600345 95.70143324 -81.23669434 93.81048584 C-80.98561039 92.22661386 -80.98561039 92.22661386 -80.72945404 90.61074448 C-79.83893439 84.83296633 -79.07719452 79.22891802 -79 73.375 C-78.97421875 72.19679688 -78.9484375 71.01859375 -78.921875 69.8046875 C-79.2840864 66.15670125 -79.98929012 64.36152918 -82.25 61.5 C-87.3182431 57.77501064 -95.23632569 58.86799436 -101.25 59.5 C-105.72504207 60.49718281 -109.95103493 61.91974802 -114.25 63.5 C-116.01925257 64.08811038 -117.78990559 64.6720402 -119.5625 65.25 C-120.779375 65.6625 -121.99625 66.075 -123.25 66.5 C-123.29442986 67.25183815 -123.33885971 68.0036763 -123.38463593 68.77829742 C-123.98989261 77.79835289 -125.22739325 86.66377733 -126.64257812 95.58398438 C-126.88783458 97.15405696 -127.13264897 98.72419865 -127.37705994 100.29440308 C-128.03572968 104.51769569 -128.70058414 108.73999281 -129.36668968 112.96211815 C-130.0650729 117.39545979 -130.75784472 121.82967838 -131.45129395 126.26379395 C-132.61475409 133.69819768 -133.78189762 141.13201511 -134.95166016 148.56542969 C-136.60091494 159.04591697 -138.24308088 169.52750629 -139.88403797 180.00929546 C-141.02312351 187.28355417 -142.16393344 194.55754259 -143.30504417 201.83148384 C-143.58118507 203.59180967 -143.85727366 205.35214371 -144.13331032 207.11248589 C-144.91929269 212.1245434 -145.70634629 217.13643023 -146.49514961 222.14804459 C-146.73374898 223.66492779 -146.97199719 225.18186628 -147.20986748 226.69886398 C-147.53471654 228.77006193 -147.86087335 230.84104979 -148.18737793 232.9119873 C-148.36951591 234.07038872 -148.5516539 235.22879013 -148.73931122 236.42229462 C-149.18770882 239.12459736 -149.71278852 241.8139426 -150.25 244.5 C-179.62 244.5 -208.99 244.5 -239.25 244.5 C-238.10134833 230.71617998 -238.10134833 230.71617998 -237.04466248 224.22496033 C-236.92694601 223.47889969 -236.80922954 222.73283905 -236.6879459 221.96417052 C-236.29931105 219.50790091 -235.90444695 217.05267746 -235.50952148 214.59741211 C-235.22641004 212.81640579 -234.94369115 211.03533704 -234.66133118 209.25421143 C-233.89621504 204.434903 -233.12567945 199.61647517 -232.35418582 194.79818416 C-231.53787139 189.69365902 -230.72674221 184.58830996 -229.91505432 179.48304749 C-228.36981384 169.76883724 -226.82016882 160.0553352 -225.26883799 150.34209591 C-223.19538487 137.3585352 -221.12787145 124.37402931 -219.06032109 111.38952756 C-218.55590394 108.22172911 -218.05147078 105.05393322 -217.54702759 101.88613892 C-217.38203974 100.85001516 -217.2170519 99.8138914 -217.04706442 98.74636996 C-216.05950414 92.54524371 -215.0709661 86.34427425 -214.08161366 80.14343369 C-211.20997219 62.14493021 -208.33869708 44.14654049 -205.53564453 26.13720703 C-205.34064519 24.88569257 -205.14564585 23.6341781 -204.94473743 22.34473896 C-204.09006743 16.8546197 -203.23935071 11.36394025 -202.39610291 5.87205505 C-202.11577763 4.06256111 -201.83539226 2.25307648 -201.55493164 0.44360352 C-201.37381301 -0.75194184 -201.37381301 -0.75194184 -201.18903542 -1.97163963 C-200.36324822 -7.27350356 -200.36324822 -7.27350356 -199.25 -9.5 C-173.84 -9.5 -148.43 -9.5 -122.25 -9.5 C-121.26 -0.59 -121.26 -0.59 -120.25 8.5 C-117.878125 7.13875 -115.50625 5.7775 -113.0625 4.375 C-97.33979764 -4.49749599 -81.32045259 -11.38122726 -63.25 -13.5 C-62.27289062 -13.62246094 -61.29578125 -13.74492187 -60.2890625 -13.87109375 C-39.72105209 -15.96934166 -16.09249857 -14.37268956 0 0 Z " fill="#008CFF" transform="translate(721.25,14.5)"/>
<path d="M0 0 C17.37304285 16.88080664 26.54971242 41.14403608 27.16113281 65.24682617 C27.1806874 66.76214551 27.1944401 68.27754813 27.203125 69.79296875 C27.21013931 70.61297867 27.21715363 71.43298859 27.22438049 72.27784729 C27.24181279 74.91445451 27.24823408 77.55083724 27.25 80.1875 C27.25067474 81.08738647 27.25134949 81.98727295 27.25204468 82.91442871 C27.23623376 96.16663963 26.83752369 109.00771634 24 122 C23.83371094 122.80630859 23.66742187 123.61261719 23.49609375 124.44335938 C15.3676278 163.12883621 -4.26971028 198.709863 -37.67749023 220.8972168 C-46.33165991 226.45257775 -55.34261271 230.51772244 -65 234 C-66.64742187 234.59941406 -66.64742187 234.59941406 -68.328125 235.2109375 C-83.29915986 240.21382101 -98.68751397 241.56445642 -114.375 241.4375 C-115.17883118 241.43445862 -115.98266235 241.43141724 -116.81085205 241.42828369 C-129.19600611 241.35917525 -141.10741343 240.76914104 -153 237 C-154.0214209 236.67854004 -154.0214209 236.67854004 -155.06347656 236.35058594 C-175.52189335 229.61607116 -192.22729434 215.34929816 -202.0078125 196.2109375 C-211.59802822 176.14646346 -214.41457203 154.51071372 -214.3125 132.5 C-214.31034485 131.6630661 -214.3081897 130.8261322 -214.30596924 129.96383667 C-214.12769788 86.74642772 -201.97177715 42.63606725 -170.515625 11.43359375 C-149.65027983 -8.3024415 -122.45654163 -19.93977859 -94 -23 C-92.38931641 -23.18369141 -92.38931641 -23.18369141 -90.74609375 -23.37109375 C-59.03540466 -26.24099969 -24.42894633 -22.16847564 0 0 Z M-103.74609375 53.484375 C-107.21058994 57.35116104 -109.70568618 61.35608769 -112 66 C-112.42796875 66.845625 -112.8559375 67.69125 -113.296875 68.5625 C-124.82741311 93.61650873 -130.80523022 133.19579012 -121.1875 159.625 C-118.80533793 164.85520824 -116.09097223 168.54118217 -111.3125 171.875 C-104.82886877 174.07698797 -99.15151334 173.85313439 -92.875 171.0625 C-79.47720973 163.54461769 -74.15696243 149.02647114 -70.09375 135.01171875 C-63.51181815 111.33378631 -56.0740066 75.00532128 -68.6484375 52.0625 C-71.77597649 47.28983935 -75.56494345 45.35876414 -81 44 C-90.45123205 43.58371409 -97.04201194 46.97963209 -103.74609375 53.484375 Z " fill="#008CFF" transform="translate(1372,24)"/>
<path d="M0 0 C16.72191908 30.88684568 16.00475348 63.82987291 6.25 97.0625 C5.21519776 100.3921476 4.12248344 103.69896111 3 107 C2.72736328 107.80663086 2.45472656 108.61326172 2.17382812 109.44433594 C-5.67798223 132.22909277 -16.77748024 154.26417123 -29 175 C-29.48839355 175.8353125 -29.97678711 176.670625 -30.47998047 177.53125 C-43.36535725 199.46787659 -57.47791972 221.39119627 -73.19827271 241.42796326 C-74.65218458 243.50347977 -75.74349595 245.41726294 -76.87837219 247.66119385 C-79.6878058 252.77687948 -82.65724343 257.82386659 -88.39678574 259.84329796 C-95.55399112 261.14048032 -102.80871471 260.71994745 -110.04296875 260.46484375 C-112.38130359 260.43683238 -114.71972706 260.41549671 -117.05818176 260.40052795 C-123.1844102 260.34351679 -129.30522008 260.19643296 -135.42932129 260.02996826 C-141.68976535 259.87593291 -147.95109387 259.80789125 -154.21289062 259.73242188 C-166.47762877 259.57201929 -178.7383622 259.31635809 -191 259 C-191.19399824 257.84024249 -191.38799648 256.68048498 -191.58787346 255.48558331 C-196.19798522 227.92569233 -200.80889948 200.36593571 -205.42079561 172.80634327 C-205.98903238 169.41069142 -206.55726242 166.01503844 -207.12548828 162.61938477 C-207.23860702 161.94340063 -207.35172576 161.26741649 -207.46827234 160.57094798 C-209.29737961 149.64032185 -211.1259414 138.70960454 -212.95429991 127.77885314 C-214.83181598 116.55429073 -216.7099337 105.32982913 -218.58857071 94.10545427 C-219.64314319 87.80453767 -220.69744523 81.5035761 -221.75109482 75.20250511 C-222.74356931 69.26732845 -223.73677398 63.33227442 -224.73052979 57.39731216 C-225.09439891 55.22341308 -225.4580052 53.04946998 -225.82132339 50.87547874 C-226.31911834 47.89706421 -226.81787721 44.91881258 -227.31686401 41.94059753 C-227.45889437 41.08939353 -227.60092472 40.23818952 -227.74725902 39.36119145 C-228.63869154 34.04838701 -229.59536613 28.75162929 -230.6033622 23.4596079 C-231.12568364 20.22061774 -231.21338782 17.27194653 -231 14 C-228.98028565 11.98028565 -225.03469756 12.40784821 -222.25488281 12.15209961 C-221.44346832 12.07392502 -220.63205383 11.99575043 -219.79605103 11.91520691 C-217.09880837 11.65652146 -214.40100112 11.40433025 -211.703125 11.15234375 C-209.83320087 10.97473436 -207.96330782 10.79679743 -206.09344482 10.61854553 C-202.16606959 10.24511117 -198.2384237 9.87471216 -194.31054688 9.5065918 C-189.27843481 9.03487568 -184.24691291 8.55718712 -179.21556473 8.07739925 C-175.35013395 7.70920741 -171.4844753 7.34345755 -167.61873627 6.97851753 C-165.76394947 6.80326609 -163.9092177 6.62743117 -162.05454254 6.45100212 C-159.45747599 6.20447234 -156.8601369 5.96104816 -154.26269531 5.71850586 C-153.4967807 5.645271 -152.73086609 5.57203613 -151.94174194 5.49658203 C-148.28182848 5.15810175 -144.67616054 4.91677482 -141 5 C-139.58813778 7.82372444 -139.47047714 10.52009498 -139.08250427 13.65640259 C-138.95259074 14.69414639 -138.95259074 14.69414639 -138.82005268 15.7528547 C-138.52942472 18.08172059 -138.24410778 20.41120677 -137.95874023 22.74072266 C-137.75201662 24.4060606 -137.54496748 26.07135816 -137.33761597 27.73661804 C-136.77446022 32.26694089 -136.21588018 36.79781769 -135.65809512 41.32880449 C-135.0748352 46.06038069 -134.48740319 50.79143877 -133.90040588 55.52255249 C-132.78895556 64.48590217 -131.68128009 73.44971415 -130.57494646 82.41369665 C-129.31546385 92.6170536 -128.05179461 102.81989063 -126.78776634 113.02268529 C-124.18717192 134.01454672 -121.59185887 155.00705833 -119 176 C-117.73252155 173.95565362 -116.46694306 171.91017017 -115.20239258 169.86401367 C-114.84796333 169.29277519 -114.49353409 168.72153671 -114.12836456 168.13298798 C-99.21938063 143.98292927 -87.56933391 117.34369018 -80 90 C-79.77699219 89.2167334 -79.55398437 88.4334668 -79.32421875 87.62646484 C-73.3389586 65.9849759 -73.78037267 42.05975296 -82.23046875 21.171875 C-83 19 -83 19 -83 16 C-74.07741879 13.6805295 -65.10579795 11.70670853 -56.07421875 9.86328125 C-54.67323677 9.57613716 -53.27226135 9.28896103 -51.87129211 9.00175476 C-48.95976117 8.40568408 -46.04776966 7.81192302 -43.13549805 7.21948242 C-39.41791684 6.46273694 -35.70221099 5.69716559 -31.98686504 4.92953205 C-29.10436683 4.33552376 -26.2206327 3.7476985 -23.33652687 3.16155052 C-21.96584077 2.881925 -20.59560811 2.60006635 -19.22586632 2.31585121 C-17.31166327 1.91931146 -15.39548331 1.53235189 -13.47924805 1.14575195 C-12.39403366 0.92385696 -11.30881927 0.70196198 -10.1907196 0.4733429 C-6.75226797 -0.03675102 -3.47110752 -0.08031034 0 0 Z " fill="#008CFF" transform="translate(231,0)"/>
<path d="M0 0 C24.16839035 -0.65764327 47.9209675 5.57264959 65.875 22.2265625 C79.17809382 35.75589941 84.16169406 53.31698161 84.02954102 71.94311523 C83.42350571 91.22975328 75.46430976 106.91988587 61.609375 120.125 C37.99556544 142.03972488 4.81582093 150.42853094 -26.390625 154.125 C-27.49148438 154.25648438 -28.59234375 154.38796875 -29.7265625 154.5234375 C-35.62040166 155.13428358 -41.46863287 155.24061373 -47.390625 155.125 C-45.09043246 172.79227171 -45.09043246 172.79227171 -34.515625 186.625 C-19.64054243 196.47548407 -0.58828535 193.81498012 16.04199219 190.65966797 C31.35573051 187.47051934 45.43282386 181.47450055 59.58837891 174.94775391 C61.609375 174.125 61.609375 174.125 63.609375 174.125 C62.70764363 186.38503598 61.11686137 198.54078544 59.42137814 210.71175289 C58.92820734 214.25384134 58.44944602 217.79664146 58.00317383 221.3449707 C57.56667321 224.81305873 57.09528084 228.27473824 56.59909248 231.73477364 C56.32970412 233.67532952 56.0956161 235.62068141 55.86228943 237.56590271 C54.58789141 246.10855033 54.58789141 246.10855033 51.79797363 249.00662231 C49.76330616 250.31517439 47.86608709 251.26419576 45.609375 252.125 C44.9048671 252.41517502 44.20035919 252.70535004 43.47450256 253.00431824 C41.41787531 253.81635774 39.34993392 254.48221684 37.234375 255.125 C36.42548828 255.37282227 35.61660156 255.62064453 34.78320312 255.87597656 C-4.38291632 267.37900414 -52.62325313 271.62854829 -90.203125 252.375 C-111.51921777 239.81490226 -125.66946769 220.89129257 -132.19750977 197.06640625 C-133.02953663 193.76883189 -133.72287253 190.4604068 -134.390625 187.125 C-134.61621094 186.02929688 -134.84179688 184.93359375 -135.07421875 183.8046875 C-142.25065611 141.14200469 -131.90481841 92.44676412 -107.13671875 56.81640625 C-102.29709231 50.20926406 -97.00307922 44.08268427 -91.390625 38.125 C-90.72933594 37.38765625 -90.06804687 36.6503125 -89.38671875 35.890625 C-66.40045687 11.29052689 -32.56248175 1.70261342 0 0 Z M-32.578125 75.3125 C-39.83907516 83.81735796 -45.75217358 95.73621973 -45.390625 107.125 C-28.94353388 108.18610265 -9.64834918 102.91140455 3.51171875 93.00390625 C8.69945364 88.3571642 11.33381418 83.27134807 11.7421875 76.29296875 C11.44191524 71.3914657 9.35705821 68.05960402 6.359375 64.3125 C-7.15851446 53.55963339 -22.87036571 65.16347892 -32.578125 75.3125 Z " fill="#008CFF" transform="translate(392.390625,-0.125)"/>
</svg>
